<?xml version="1.0" encoding="UTF-8"?>
<svg width="24px" height="24px" viewBox="0 0 24 24" version="1.1" xmlns="http://www.w3.org/2000/svg" xmlns:xlink="http://www.w3.org/1999/xlink">
    <defs></defs>
    <g id="Page-1" stroke="none" stroke-width="1" fill="none" fill-rule="evenodd">
        <path d="M20.5205145,2 L3.47559654,2 C2.66168505,2 2,2.64555556 2,3.44222222 L2,20.5566667 C2,21.3533333 2.66168505,22 3.47559654,22 L20.5205145,22 C21.3366482,22 22,21.3533333 22,20.5566667 L22,3.44222222 C22,2.64555556 21.3366482,2 20.5205145,2" id="Fill-10" fill="#006087"></path>
        <path d="M6.5004845,5 C7.32800388,5 8,5.75497667 8,6.68522551 C8,7.61601866 7.32800388,8.37099533 6.5004845,8.37099533 C5.66957364,8.37099533 5,7.61601866 5,6.68522551 C5,5.75497667 5.66957364,5 6.5004845,5 L6.5004845,5 Z M5.20542636,19 L7.79457364,19 L7.79457364,9.64852255 L5.20542636,9.64852255 L5.20542636,19 Z" id="Fill-12" fill="#FFFFFF"></path>
        <path d="M10,9.24196297 L12.7668188,9.24196297 L12.7668188,10.5761672 L12.806283,10.5761672 C13.1911941,9.80881518 14.1334695,9 15.5379625,9 C18.4599351,9 19,11.020334 19,13.6484153 L19,19 L16.114248,19 L16.114248,14.2544587 C16.114248,13.1230262 16.0953268,11.6672725 14.6140678,11.6672725 C13.1122657,11.6672725 12.883049,12.9003749 12.883049,14.1738044 L12.883049,19 L10,19 L10,9.24196297" id="Fill-13" fill="#FFFFFF"></path>
    </g>
</svg>