<?xml version="1.0" encoding="UTF-8"?>
<svg width="25px" height="24px" viewBox="0 0 25 24" version="1.1" xmlns="http://www.w3.org/2000/svg" xmlns:xlink="http://www.w3.org/1999/xlink">
    <defs></defs>
    <g id="Page-1" stroke="none" stroke-width="1" fill="none" fill-rule="evenodd">
        <g id="medium" transform="translate(1.001000, 3.000000)">
            <path d="M15.2103019,0.225888889 C14.8794717,0.0576333333 14.6088302,0.227788889 14.6088302,0.603988889 L14.6088302,15.5694444 L20.6461698,18.6400556 C21.3105283,18.9778333 21.8491132,18.7413889 21.8491132,18.1118556 L21.8491132,3.70056667 C21.8491132,3.6404 21.8154906,3.58508889 21.762566,3.55806667 L15.2103019,0.225888889" id="Fill-1" fill="#18FE88"></path>
            <path d="M7.36875472,11.8872444 L14.2564151,0.502444444 C14.4502642,0.181977778 14.8794717,0.0576333333 15.2103019,0.225888889 L21.7700377,3.56186667 C21.8125849,3.58361111 21.8277358,3.63765556 21.8028302,3.67882222 L14.6088302,15.5694444 L7.36875472,11.8872444" id="Fill-2" fill="#00E56B"></path>
            <path d="M1.13092453,0.429822222 C0.579471698,0.149255556 0.392679245,0.356777778 0.715830189,0.890888889 L7.36875472,11.8872444 L14.6088302,15.5694444 L7.38432075,3.62794444 C7.37415094,3.61105556 7.35941509,3.59754444 7.34198113,3.58867778 L1.13092453,0.429822222" id="Fill-3" fill="#00C963"></path>
            <path d="M7.36875472,18.1118556 C7.36875472,18.7388556 6.91754717,19.0223778 6.36630189,18.7420222 L0.729943396,15.8753444 C0.399113208,15.7070889 0.128471698,15.2616444 0.128471698,14.8854444 L0.128471698,0.831988889 C0.128471698,0.330388889 0.489396226,0.103444444 0.930433962,0.327855556 L7.32973585,3.58234444 C7.35360377,3.59458889 7.36875472,3.61928889 7.36875472,3.64631111 L7.36875472,18.1118556" id="Fill-4" fill="#00AC6A"></path>
        </g>
    </g>
</svg>