<?xml version="1.0" encoding="UTF-8"?>
<svg width="24px" height="24px" viewBox="0 0 24 24" version="1.1" xmlns="http://www.w3.org/2000/svg" xmlns:xlink="http://www.w3.org/1999/xlink">
    <defs></defs>
    <g id="Page-1" stroke="none" stroke-width="1" fill="none" fill-rule="evenodd">
        <path d="M7.918824,21 C16.221096,21 20.761192,14.0755397 20.761192,8.07119865 C20.761192,7.87443522 20.757232,7.67855772 20.748256,7.48374332 C21.629488,6.84242388 22.395616,6.04216992 23,5.13099843 C22.191192,5.49263208 21.320872,5.736438 20.407872,5.84629241 C21.339792,5.28390869 22.055232,4.39373357 22.392624,3.33275256 C21.520368,3.85323214 20.554744,4.23178691 19.52664,4.43563772 C18.703048,3.55246139 17.530008,3 16.232008,3 C13.739144,3 11.717696,5.03505301 11.717696,7.54372028 C11.717696,7.90039276 11.757384,8.24705431 11.834736,8.57980687 C8.08356,8.38995364 4.75716,6.58169684 2.5312,3.83223577 C2.143208,4.50358799 1.919952,5.28390869 1.919952,6.11605587 C1.919952,7.69264389 2.716792,9.08433984 3.928464,9.89850279 C3.188208,9.87555739 2.492568,9.67073207 1.884224,9.3300062 C1.883168,9.34896495 1.883168,9.36801228 1.883168,9.38794555 C1.883168,11.5889319 3.439272,13.4261583 5.504368,13.8428078 C5.125352,13.9466379 4.72636,14.0026282 4.31452,14.0026282 C4.023768,14.0026282 3.740936,13.9736586 3.466024,13.9206804 C4.040664,15.7260136 5.706856,17.0397484 7.682632,17.07678 C6.137528,18.2955438 4.191496,19.0218232 2.076768,19.0218232 C1.712536,19.0218232 1.35332,19.0009155 1,18.9589227 C2.997688,20.2476745 5.369464,21 7.918824,21" id="Twitter_Logo_Blue" fill="#1DA1F2"></path>
    </g>
</svg>