<svg width="1600" height="1600" viewBox="0 0 1600 1600" version="1.1" xmlns="http://www.w3.org/2000/svg" xmlns:xlink="http://www.w3.org/1999/xlink">
<title>Youtube</title>
<desc>Created using Figma</desc>
<g id="Canvas" transform="translate(-19671 18312)">
<clipPath id="clip-0" clip-rule="evenodd">
<path d="M 19671 -18312L 21271 -18312L 21271 -16712L 19671 -16712L 19671 -18312Z" fill="#FFFFFF"/>
</clipPath>
<g id="Youtube" clip-path="url(#clip-0)">
<g id="Group 5">
<g id="Group 3">
<mask id="mask0_outline" mask-type="alpha">
<g id="Clip 2">
<use xlink:href="#path0_fill" transform="translate(19854 -17684)" fill="#FFFFFF"/>
</g>
</mask>
<g id="Fill 1" mask="url(#mask0_outline)">
<use xlink:href="#path1_fill" transform="translate(19853.8 -17684)"/>
</g>
</g>
<g id="Fill 4">
<use xlink:href="#path2_fill" transform="translate(20011.2 -17605.1)" fill="#FFFFFF"/>
</g>
<g id="Fill 5">
<use xlink:href="#path3_fill" transform="translate(20403.6 -17604.1)"/>
</g>
<g id="Fill 6">
<use xlink:href="#path4_fill" transform="translate(20985 -17603.9)"/>
</g>
<g id="Fill 7">
<use xlink:href="#path5_fill" transform="translate(20286.3 -17664.4)"/>
</g>
<g id="Fill 8">
<use xlink:href="#path6_fill" transform="translate(20531.3 -17600.7)"/>
</g>
<g id="Fill 9">
<use xlink:href="#path7_fill" transform="translate(20730.5 -17600.7)"/>
</g>
<g id="Fill 10">
<use xlink:href="#path8_fill" transform="translate(20627 -17664.4)"/>
</g>
<g id="Fill 11">
<use xlink:href="#path9_fill" transform="translate(20859.2 -17673.2)"/>
</g>
</g>
</g>
</g>
<defs>
<path id="path0_fill" fill-rule="evenodd" d="M 196.708 0L 0 0L 0 276L 196.708 276L 393.417 276L 393.417 0L 196.708 0Z"/>
<path id="path1_fill" fill-rule="evenodd" d="M 385.385 43.0947C 380.858 26.1333 367.523 12.7713 350.587 8.23726C 319.891 0 196.804 0 196.804 0C 196.804 0 73.7197 0 43.0239 8.23726C 26.0885 12.7713 12.7526 26.1333 8.22635 43.0947C 0 73.8464 0 137.998 0 137.998C 0 137.998 0 202.154 8.22635 232.902C 12.7526 249.863 26.0885 263.229 43.0239 267.759C 73.7197 276 196.804 276 196.804 276C 196.804 276 319.891 276 350.587 267.759C 367.523 263.229 380.858 249.863 385.385 232.902C 393.611 202.154 393.611 137.998 393.611 137.998C 393.611 137.998 393.611 73.8464 385.385 43.0947"/>
<path id="path2_fill" fill-rule="evenodd" d="M 0 118.288L 102.258 59.1473L 0 0L 0 118.288"/>
<path id="path3_fill" fill-rule="evenodd" d="M 65.159 144.083C 67.3136 138.446 68.3958 129.235 68.3958 116.454L 68.3958 62.5968C 68.3958 50.189 67.3136 41.1208 65.159 35.3859C 63.0012 29.6542 59.2007 26.7852 53.7607 26.7852C 48.5055 26.7852 44.7957 29.6542 42.6411 35.3859C 40.4832 41.1208 39.4043 50.189 39.4043 62.5968L 39.4043 116.454C 39.4043 129.235 40.4346 138.446 42.5017 144.083C 44.5624 149.724 48.3143 152.541 53.7607 152.541C 59.2007 152.541 63.0012 149.724 65.159 144.083ZM 21.533 171.152C 13.7408 165.894 8.20367 157.715 4.9248 146.622C 1.63944 135.535 0 120.777 0 102.356L 0 77.2608C 0 58.6507 1.87272 43.7048 5.62788 32.4265C 9.37979 21.1481 15.2409 12.9271 23.2211 7.75691C 31.1947 2.58672 41.6566 0 54.6069 0C 67.366 0 77.5915 2.6354 85.2864 7.89647C 92.9782 13.1608 98.6093 21.3851 102.177 32.5693C 105.737 43.7535 107.523 58.6507 107.523 77.2608L 107.523 102.356C 107.523 120.777 105.786 135.58 102.316 146.765C 98.8426 157.949 93.2115 166.128 85.4258 171.291C 77.6368 176.462 67.0841 179.048 53.7613 179.048C 40.0593 179.048 29.3155 176.413 21.533 171.152L 21.533 171.152Z"/>
<path id="path4_fill" fill-rule="evenodd" d="M 42.9274 29.8882C 40.9607 32.3321 39.6421 36.3274 38.9876 41.8708C 38.3266 47.4175 38.0059 55.8268 38.0059 67.1051L 38.0059 79.513L 66.4304 79.513L 66.4304 67.1051C 66.4304 56.0183 66.0545 47.6058 65.3061 41.8708C 64.5544 36.1392 63.1968 32.0984 61.2269 29.7486C 59.2538 27.3988 56.2049 26.2207 52.0772 26.2207C 47.9462 26.2207 44.8973 27.4475 42.9274 29.8882ZM 38.0052 102.635L 38.0052 111.378C 38.0052 122.468 38.3259 130.787 38.9869 136.33C 39.6414 141.877 40.9989 145.918 43.0693 148.456C 45.1332 150.994 48.3181 152.263 52.6402 152.263C 58.4528 152.263 62.4445 150.007 64.6023 145.492C 66.7569 140.984 67.9298 133.464 68.1177 122.936L 101.616 124.909C 101.804 126.418 101.898 128.486 101.898 131.115C 101.898 147.092 97.5369 159.03 88.8083 166.926C 80.0863 174.816 67.7419 178.766 51.7946 178.766C 32.6559 178.766 19.2359 172.755 11.5441 160.721C 3.84588 148.696 0 130.082 0 104.89L 0 74.7195C 0 48.7777 3.98844 29.843 11.9653 17.9026C 19.9389 5.9686 33.5923 0 52.9221 0C 66.2417 0 76.4704 2.44391 83.6016 7.3285C 90.7296 12.2196 95.7516 19.8337 98.6612 30.1708C 101.571 40.5112 103.025 54.7982 103.025 73.0286L 103.025 102.635L 38.0052 102.635L 38.0052 102.635Z"/>
<path id="path5_fill" fill-rule="evenodd" d="M 44.1936 159.877L 0 0L 38.5624 0L 54.0432 72.4671C 57.9862 90.3274 60.8925 105.552 62.7685 118.145L 63.896 118.145C 65.2082 109.123 68.1177 93.9917 72.6213 72.7494L 88.6658 0L 127.228 0L 82.4741 159.877L 82.4741 236.576L 44.1936 236.576L 44.1936 159.877"/>
<path id="path6_fill" fill-rule="evenodd" d="M 105.274 0L 105.274 172.846L 74.8731 172.846L 71.4938 151.698L 70.6514 151.698C 62.3926 167.676 50.0061 175.663 33.4951 175.663C 22.0482 175.663 13.6047 171.908 8.16155 164.385C 2.71836 156.871 0 145.119 0 129.141L 0 0L 38.8443 0L 38.8443 126.886C 38.8443 134.597 39.69 140.092 41.378 143.38C 43.066 146.671 45.8816 148.313 49.8214 148.313C 53.2008 148.313 56.4375 147.284 59.5317 145.21C 62.6291 143.146 64.9263 140.517 66.4297 137.32L 66.4297 0L 105.274 0"/>
<path id="path7_fill" fill-rule="evenodd" d="M 105.274 0L 105.274 172.846L 74.8731 172.846L 71.4938 151.698L 70.6546 151.698C 62.3894 167.676 50.0061 175.663 33.4951 175.663C 22.0482 175.663 13.6047 171.908 8.16155 164.385C 2.71836 156.871 0 145.119 0 129.141L 0 0L 38.8443 0L 38.8443 126.886C 38.8443 134.597 39.6867 140.092 41.3748 143.38C 43.066 146.671 45.8816 148.313 49.8214 148.313C 53.2008 148.313 56.4375 147.284 59.5317 145.21C 62.6291 143.146 64.9263 140.517 66.4297 137.32L 66.4297 0L 105.274 0"/>
<path id="path8_fill" fill-rule="evenodd" d="M 115.124 31.297L 76.5611 31.297L 76.5611 236.57L 38.5625 236.57L 38.5625 31.297L 0 31.297L 0 0L 115.124 0L 115.124 31.297"/>
<path id="path9_fill" fill-rule="evenodd" d="M 69.5277 170.598C 69.5277 183.194 69.0061 193.064 67.9758 200.204C 66.9454 207.354 65.2088 212.427 62.7691 215.432C 60.3294 218.441 57.0408 219.944 52.9195 219.944C 49.7249 219.944 46.77 219.194 44.0516 217.685C 41.3268 216.182 39.1268 213.93 37.4355 210.918L 37.4355 112.794C 38.7477 108.101 40.9995 104.246 44.1909 101.234C 47.3823 98.2315 50.8491 96.7256 54.6043 96.7256C 58.5474 96.7256 61.593 98.277 63.754 101.376C 65.9086 104.476 67.412 109.695 68.2576 117.027C 69.1033 124.355 69.5277 134.79 69.5277 148.324L 69.5277 170.598ZM 105.131 100.097C 102.782 89.198 98.9819 81.3048 93.7299 76.4137C 88.4746 71.5291 81.2494 69.0852 72.0575 69.0852C 64.9263 69.0852 58.2649 71.1072 52.0732 75.1447C 45.8816 79.1887 41.0929 84.4984 37.7168 91.0772L 37.4317 91.0772L 37.4349 0L 0 0L 0 245.31L 32.0857 245.31L 36.0288 228.959L 36.8712 228.959C 39.8714 234.784 44.375 239.39 50.382 242.775C 56.3857 246.157 63.0503 247.848 70.3695 247.848C 83.5012 247.848 93.1661 241.785 99.361 229.663C 105.553 217.534 108.65 198.6 108.65 172.846L 108.65 145.496C 108.65 126.136 107.474 111.005 105.131 100.097L 105.131 100.097Z"/>
</defs>
</svg>
