<svg width="1600" height="1600" viewBox="0 0 1600 1600" fill="none" xmlns="http://www.w3.org/2000/svg">
<mask id="path-1-outside-1" maskUnits="userSpaceOnUse" x="135.801" y="656" width="1255" height="296" fill="black">
<rect fill="white" x="135.801" y="656" width="1255" height="296"/>
<path fill-rule="evenodd" clip-rule="evenodd" d="M531.186 709.095C526.659 692.133 513.324 678.771 496.388 674.237C465.692 666 342.605 666 342.605 666C342.605 666 219.521 666 188.825 674.237C171.889 678.771 158.553 692.133 154.027 709.095C145.801 739.846 145.801 803.998 145.801 803.998C145.801 803.998 145.801 868.154 154.027 898.902C158.553 915.863 171.889 929.229 188.825 933.759C219.521 942 342.605 942 342.605 942C342.605 942 465.692 942 496.388 933.759C513.324 929.229 526.659 915.863 531.186 898.902C539.412 868.154 539.412 803.998 539.412 803.998C539.412 803.998 539.412 739.846 531.186 709.095ZM303.199 863.188L405.457 804.048L303.199 744.9V863.188ZM1220.73 847.399C1220.73 859.995 1220.21 869.865 1219.17 877.005C1218.14 884.155 1216.41 889.228 1213.97 892.233C1211.53 895.242 1208.24 896.745 1204.12 896.745C1200.92 896.745 1197.97 895.995 1195.25 894.486C1192.53 892.983 1190.33 890.731 1188.63 887.719V789.595C1189.95 784.902 1192.2 781.047 1195.39 778.035C1198.58 775.032 1202.05 773.526 1205.8 773.526C1209.75 773.526 1212.79 775.078 1214.95 778.177C1217.11 781.277 1218.61 786.496 1219.46 793.828C1220.3 801.156 1220.73 811.591 1220.73 825.125V847.399ZM1256.33 776.898C1253.98 765.999 1250.18 758.105 1244.93 753.214C1239.67 748.33 1232.45 745.886 1223.26 745.886C1216.13 745.886 1209.46 747.908 1203.27 751.946C1197.08 755.99 1192.29 761.299 1188.92 767.878H1188.63L1188.63 676.801H1151.2V922.111H1183.29L1187.23 905.76H1188.07C1191.07 911.585 1195.57 916.191 1201.58 919.576C1207.58 922.958 1214.25 924.649 1221.57 924.649C1234.7 924.649 1244.37 918.586 1250.56 906.464C1256.75 894.335 1259.85 875.401 1259.85 849.647V822.297C1259.85 802.937 1258.67 787.806 1256.33 776.898ZM622.494 845.477L578.301 685.6H616.863L632.344 758.067C636.287 775.927 639.193 791.152 641.069 803.745H642.197C643.509 794.723 646.418 779.591 650.922 758.349L666.967 685.6H705.529L660.775 845.477V922.176H622.494V845.477ZM763.996 862.354C763.996 875.135 762.913 884.346 760.759 889.983C758.601 895.624 754.8 898.441 749.36 898.441C743.914 898.441 740.162 895.624 738.101 889.983C736.034 884.346 735.004 875.135 735.004 862.354V808.497C735.004 796.089 736.083 787.021 738.241 781.286C740.396 775.555 744.105 772.686 749.36 772.686C754.8 772.686 758.601 775.555 760.759 781.286C762.913 787.021 763.996 796.089 763.996 808.497V862.354ZM700.524 892.522C703.803 903.615 709.34 911.794 717.133 917.052C724.915 922.313 735.659 924.948 749.361 924.948C762.684 924.948 773.236 922.362 781.025 917.191C788.811 912.028 794.442 903.849 797.916 892.665C801.386 881.48 803.123 866.677 803.123 848.256V823.161C803.123 804.551 801.336 789.654 797.776 778.47C794.209 767.285 788.578 759.061 780.886 753.797C773.191 748.536 762.966 745.9 750.207 745.9C737.256 745.9 726.794 748.487 718.821 753.657C710.84 758.827 704.979 767.049 701.228 778.327C697.472 789.605 695.6 804.551 695.6 823.161V848.256C695.6 866.677 697.239 881.435 700.524 892.522ZM1315.99 787.97C1316.64 782.427 1317.96 778.432 1319.93 775.988C1321.9 773.547 1324.95 772.32 1329.08 772.32C1333.21 772.32 1336.25 773.498 1338.23 775.848C1340.2 778.198 1341.55 782.239 1342.31 787.97C1343.05 793.705 1343.43 802.118 1343.43 813.205V825.613H1315.01V813.205C1315.01 801.927 1315.33 793.517 1315.99 787.97ZM1315.01 857.478V848.735H1380.02V819.128C1380.02 800.898 1378.57 786.611 1375.66 776.271C1372.75 765.933 1367.73 758.319 1360.6 753.428C1353.47 748.543 1343.24 746.1 1329.92 746.1C1310.59 746.1 1296.94 752.068 1288.97 764.002C1280.99 775.943 1277 794.877 1277 820.819V850.99C1277 876.182 1280.85 894.796 1288.54 906.821C1296.24 918.854 1309.66 924.866 1328.79 924.866C1344.74 924.866 1357.09 920.916 1365.81 913.026C1374.54 905.13 1378.9 893.192 1378.9 877.215C1378.9 874.586 1378.8 872.518 1378.62 871.009L1345.12 869.036C1344.93 879.564 1343.76 887.083 1341.6 891.592C1339.44 896.107 1335.45 898.363 1329.64 898.363C1325.32 898.363 1322.13 897.094 1320.07 894.556C1318 892.018 1316.64 887.977 1315.99 882.43C1315.33 876.887 1315.01 868.568 1315.01 857.478ZM928.575 922.147V749.301H889.73V886.621C888.227 889.818 885.93 892.447 882.833 894.511C879.738 896.585 876.501 897.614 873.122 897.614C869.183 897.614 866.367 895.972 864.679 892.681C862.991 889.393 862.145 883.898 862.145 876.187V749.301H823.301V878.442C823.301 894.42 826.019 906.172 831.462 913.686C836.905 921.209 845.349 924.964 856.796 924.964C873.307 924.964 885.693 916.977 893.952 900.999H894.794L898.174 922.147H928.575ZM1127.77 749.301V922.147H1097.37L1093.99 900.999H1093.15C1084.89 916.977 1072.51 924.964 1056 924.964C1044.55 924.964 1036.1 921.209 1030.66 913.686C1025.22 906.172 1022.5 894.42 1022.5 878.442V749.301H1061.34V876.187C1061.34 883.898 1062.19 889.393 1063.88 892.681C1065.57 895.972 1068.38 897.614 1072.32 897.614C1075.7 897.614 1078.94 896.585 1082.03 894.511C1085.13 892.447 1087.43 889.818 1088.93 886.621V749.301H1127.77ZM995.561 716.897H1034.12V685.6H919V716.897H957.562V922.17H995.561V716.897Z"/>
</mask>
<path fill-rule="evenodd" clip-rule="evenodd" d="M531.186 709.095C526.659 692.133 513.324 678.771 496.388 674.237C465.692 666 342.605 666 342.605 666C342.605 666 219.521 666 188.825 674.237C171.889 678.771 158.553 692.133 154.027 709.095C145.801 739.846 145.801 803.998 145.801 803.998C145.801 803.998 145.801 868.154 154.027 898.902C158.553 915.863 171.889 929.229 188.825 933.759C219.521 942 342.605 942 342.605 942C342.605 942 465.692 942 496.388 933.759C513.324 929.229 526.659 915.863 531.186 898.902C539.412 868.154 539.412 803.998 539.412 803.998C539.412 803.998 539.412 739.846 531.186 709.095ZM303.199 863.188L405.457 804.048L303.199 744.9V863.188ZM1220.73 847.399C1220.73 859.995 1220.21 869.865 1219.17 877.005C1218.14 884.155 1216.41 889.228 1213.97 892.233C1211.53 895.242 1208.24 896.745 1204.12 896.745C1200.92 896.745 1197.97 895.995 1195.25 894.486C1192.53 892.983 1190.33 890.731 1188.63 887.719V789.595C1189.95 784.902 1192.2 781.047 1195.39 778.035C1198.58 775.032 1202.05 773.526 1205.8 773.526C1209.75 773.526 1212.79 775.078 1214.95 778.177C1217.11 781.277 1218.61 786.496 1219.46 793.828C1220.3 801.156 1220.73 811.591 1220.73 825.125V847.399ZM1256.33 776.898C1253.98 765.999 1250.18 758.105 1244.93 753.214C1239.67 748.33 1232.45 745.886 1223.26 745.886C1216.13 745.886 1209.46 747.908 1203.27 751.946C1197.08 755.99 1192.29 761.299 1188.92 767.878H1188.63L1188.63 676.801H1151.2V922.111H1183.29L1187.23 905.76H1188.07C1191.07 911.585 1195.57 916.191 1201.58 919.576C1207.58 922.958 1214.25 924.649 1221.57 924.649C1234.7 924.649 1244.37 918.586 1250.56 906.464C1256.75 894.335 1259.85 875.401 1259.85 849.647V822.297C1259.85 802.937 1258.67 787.806 1256.33 776.898ZM622.494 845.477L578.301 685.6H616.863L632.344 758.067C636.287 775.927 639.193 791.152 641.069 803.745H642.197C643.509 794.723 646.418 779.591 650.922 758.349L666.967 685.6H705.529L660.775 845.477V922.176H622.494V845.477ZM763.996 862.354C763.996 875.135 762.913 884.346 760.759 889.983C758.601 895.624 754.8 898.441 749.36 898.441C743.914 898.441 740.162 895.624 738.101 889.983C736.034 884.346 735.004 875.135 735.004 862.354V808.497C735.004 796.089 736.083 787.021 738.241 781.286C740.396 775.555 744.105 772.686 749.36 772.686C754.8 772.686 758.601 775.555 760.759 781.286C762.913 787.021 763.996 796.089 763.996 808.497V862.354ZM700.524 892.522C703.803 903.615 709.34 911.794 717.133 917.052C724.915 922.313 735.659 924.948 749.361 924.948C762.684 924.948 773.236 922.362 781.025 917.191C788.811 912.028 794.442 903.849 797.916 892.665C801.386 881.48 803.123 866.677 803.123 848.256V823.161C803.123 804.551 801.336 789.654 797.776 778.47C794.209 767.285 788.578 759.061 780.886 753.797C773.191 748.536 762.966 745.9 750.207 745.9C737.256 745.9 726.794 748.487 718.821 753.657C710.84 758.827 704.979 767.049 701.228 778.327C697.472 789.605 695.6 804.551 695.6 823.161V848.256C695.6 866.677 697.239 881.435 700.524 892.522ZM1315.99 787.97C1316.64 782.427 1317.96 778.432 1319.93 775.988C1321.9 773.547 1324.95 772.32 1329.08 772.32C1333.21 772.32 1336.25 773.498 1338.23 775.848C1340.2 778.198 1341.55 782.239 1342.31 787.97C1343.05 793.705 1343.43 802.118 1343.43 813.205V825.613H1315.01V813.205C1315.01 801.927 1315.33 793.517 1315.99 787.97ZM1315.01 857.478V848.735H1380.02V819.128C1380.02 800.898 1378.57 786.611 1375.66 776.271C1372.75 765.933 1367.73 758.319 1360.6 753.428C1353.47 748.543 1343.24 746.1 1329.92 746.1C1310.59 746.1 1296.94 752.068 1288.97 764.002C1280.99 775.943 1277 794.877 1277 820.819V850.99C1277 876.182 1280.85 894.796 1288.54 906.821C1296.24 918.854 1309.66 924.866 1328.79 924.866C1344.74 924.866 1357.09 920.916 1365.81 913.026C1374.54 905.13 1378.9 893.192 1378.9 877.215C1378.9 874.586 1378.8 872.518 1378.62 871.009L1345.12 869.036C1344.93 879.564 1343.76 887.083 1341.6 891.592C1339.44 896.107 1335.45 898.363 1329.64 898.363C1325.32 898.363 1322.13 897.094 1320.07 894.556C1318 892.018 1316.64 887.977 1315.99 882.43C1315.33 876.887 1315.01 868.568 1315.01 857.478ZM928.575 922.147V749.301H889.73V886.621C888.227 889.818 885.93 892.447 882.833 894.511C879.738 896.585 876.501 897.614 873.122 897.614C869.183 897.614 866.367 895.972 864.679 892.681C862.991 889.393 862.145 883.898 862.145 876.187V749.301H823.301V878.442C823.301 894.42 826.019 906.172 831.462 913.686C836.905 921.209 845.349 924.964 856.796 924.964C873.307 924.964 885.693 916.977 893.952 900.999H894.794L898.174 922.147H928.575ZM1127.77 749.301V922.147H1097.37L1093.99 900.999H1093.15C1084.89 916.977 1072.51 924.964 1056 924.964C1044.55 924.964 1036.1 921.209 1030.66 913.686C1025.22 906.172 1022.5 894.42 1022.5 878.442V749.301H1061.34V876.187C1061.34 883.898 1062.19 889.393 1063.88 892.681C1065.57 895.972 1068.38 897.614 1072.32 897.614C1075.7 897.614 1078.94 896.585 1082.03 894.511C1085.13 892.447 1087.43 889.818 1088.93 886.621V749.301H1127.77ZM995.561 716.897H1034.12V685.6H919V716.897H957.562V922.17H995.561V716.897Z" fill="#FF13CF"/>
<path d="M496.388 674.237L493.796 683.896L493.802 683.897L496.388 674.237ZM531.186 709.095L521.524 711.673L521.525 711.679L531.186 709.095ZM188.825 674.237L191.411 683.897L191.417 683.896L188.825 674.237ZM154.027 709.095L163.688 711.679L163.689 711.673L154.027 709.095ZM154.027 898.902L163.689 896.324L163.688 896.318L154.027 898.902ZM188.825 933.759L191.418 924.101L191.409 924.099L188.825 933.759ZM496.388 933.759L493.804 924.099L493.795 924.101L496.388 933.759ZM531.186 898.902L521.525 896.318L521.524 896.323L531.186 898.902ZM405.457 804.048L410.464 812.704C413.554 810.917 415.457 807.618 415.457 804.048C415.457 800.478 413.554 797.179 410.464 795.391L405.457 804.048ZM303.199 863.188H293.199C293.199 866.762 295.107 870.065 298.202 871.851C301.298 873.636 305.112 873.634 308.206 871.845L303.199 863.188ZM303.199 744.9L308.206 736.244C305.112 734.455 301.299 734.452 298.203 736.238C295.107 738.024 293.199 741.326 293.199 744.9H303.199ZM1219.17 877.005L1209.28 875.577L1209.28 875.579L1219.17 877.005ZM1213.97 892.233L1206.2 885.93L1206.2 885.935L1213.97 892.233ZM1195.25 894.486L1200.1 885.743C1200.1 885.738 1200.09 885.734 1200.08 885.73L1195.25 894.486ZM1188.63 887.719H1178.63C1178.63 889.434 1179.08 891.12 1179.92 892.615L1188.63 887.719ZM1188.63 789.595L1179 786.902C1178.76 787.779 1178.63 788.685 1178.63 789.595H1188.63ZM1195.39 778.035L1188.54 770.751C1188.53 770.755 1188.53 770.759 1188.53 770.762L1195.39 778.035ZM1214.95 778.177L1223.16 772.469C1223.16 772.465 1223.16 772.461 1223.16 772.456L1214.95 778.177ZM1219.46 793.828L1209.52 794.974L1209.52 794.974L1219.46 793.828ZM1244.93 753.214L1251.74 745.896L1251.74 745.89L1244.93 753.214ZM1256.33 776.898L1266.11 774.797L1266.11 774.791L1256.33 776.898ZM1203.27 751.946L1197.81 743.569L1197.8 743.573L1203.27 751.946ZM1188.92 767.878V777.878C1192.67 777.878 1196.1 775.78 1197.81 772.443L1188.92 767.878ZM1188.63 767.878L1178.63 767.878C1178.63 770.53 1179.68 773.073 1181.56 774.949C1183.44 776.824 1185.98 777.878 1188.63 777.878V767.878ZM1188.63 676.801L1198.63 676.801C1198.63 674.149 1197.58 671.605 1195.71 669.73C1193.83 667.854 1191.29 666.801 1188.63 666.801V676.801ZM1151.2 676.801V666.801C1145.68 666.801 1141.2 671.278 1141.2 676.801H1151.2ZM1151.2 922.111H1141.2C1141.2 927.634 1145.68 932.111 1151.2 932.111V922.111ZM1183.29 922.111V932.111C1187.91 932.111 1191.92 928.946 1193.01 924.455L1183.29 922.111ZM1187.23 905.76V895.76C1182.61 895.76 1178.59 898.924 1177.51 903.416L1187.23 905.76ZM1188.07 905.76L1196.96 901.18C1195.25 897.852 1191.81 895.76 1188.07 895.76V905.76ZM1201.58 919.576L1196.67 928.288L1196.67 928.288L1201.58 919.576ZM1250.56 906.464L1259.46 911.015L1259.47 911.011L1250.56 906.464ZM578.301 685.6V675.6C575.178 675.6 572.235 677.058 570.343 679.543C568.452 682.028 567.83 685.254 568.662 688.264L578.301 685.6ZM622.494 845.477H632.494C632.494 844.576 632.373 843.68 632.133 842.812L622.494 845.477ZM616.863 685.6L626.643 683.511C625.657 678.897 621.581 675.6 616.863 675.6V685.6ZM632.344 758.067L622.564 760.156C622.569 760.178 622.574 760.2 622.579 760.223L632.344 758.067ZM641.069 803.745L631.178 805.218C631.908 810.118 636.116 813.745 641.069 813.745V803.745ZM642.197 803.745V813.745C647.164 813.745 651.378 810.099 652.093 805.184L642.197 803.745ZM650.922 758.349L641.157 756.195C641.151 756.222 641.145 756.249 641.139 756.275L650.922 758.349ZM666.967 685.6V675.6C662.274 675.6 658.212 678.863 657.201 683.446L666.967 685.6ZM705.529 685.6L715.159 688.295C716.002 685.283 715.387 682.049 713.496 679.556C711.605 677.064 708.657 675.6 705.529 675.6V685.6ZM660.775 845.477L651.145 842.781C650.899 843.658 650.775 844.565 650.775 845.477H660.775ZM660.775 922.176V932.176C666.298 932.176 670.775 927.698 670.775 922.176H660.775ZM622.494 922.176H612.494C612.494 927.698 616.971 932.176 622.494 932.176V922.176ZM760.759 889.983L770.099 893.557L770.1 893.553L760.759 889.983ZM738.101 889.983L747.494 886.552L747.49 886.541L738.101 889.983ZM738.241 781.286L747.6 784.808L747.601 784.805L738.241 781.286ZM760.759 781.286L770.12 777.77L770.117 777.763L760.759 781.286ZM717.133 917.052L722.733 908.768L722.726 908.763L717.133 917.052ZM700.524 892.522L710.114 889.688L710.112 889.682L700.524 892.522ZM781.025 917.191L775.499 908.857L775.495 908.86L781.025 917.191ZM797.916 892.665L807.466 895.631L807.466 895.629L797.916 892.665ZM797.776 778.47L807.305 775.437L807.303 775.431L797.776 778.47ZM780.886 753.797L786.534 745.545L786.53 745.542L780.886 753.797ZM718.821 753.657L724.258 762.05L724.261 762.048L718.821 753.657ZM701.228 778.327L710.715 781.486L710.716 781.484L701.228 778.327ZM1319.93 775.988L1312.15 769.707C1312.14 769.711 1312.14 769.715 1312.14 769.719L1319.93 775.988ZM1315.99 787.97L1325.92 789.154L1325.92 789.143L1315.99 787.97ZM1338.23 775.848L1345.89 769.424L1345.89 769.418L1338.23 775.848ZM1342.31 787.97L1352.22 786.676L1352.22 786.67L1342.31 787.97ZM1343.43 825.613V835.613C1348.95 835.613 1353.43 831.135 1353.43 825.613H1343.43ZM1315.01 825.613H1305.01C1305.01 831.135 1309.48 835.613 1315.01 835.613V825.613ZM1315.01 848.735V838.735C1309.48 838.735 1305.01 843.212 1305.01 848.735H1315.01ZM1380.02 848.735V858.735C1385.55 858.735 1390.02 854.257 1390.02 848.735H1380.02ZM1375.66 776.271L1385.29 773.562L1385.29 773.561L1375.66 776.271ZM1360.6 753.428L1366.26 745.183L1366.25 745.178L1360.6 753.428ZM1288.97 764.002L1280.65 758.447L1280.65 758.447L1288.97 764.002ZM1288.54 906.821L1296.97 901.435L1296.97 901.429L1288.54 906.821ZM1365.81 913.026L1359.1 905.61L1359.1 905.61L1365.81 913.026ZM1378.62 871.009L1388.54 869.772C1387.94 864.987 1384.02 861.309 1379.2 861.026L1378.62 871.009ZM1345.12 869.036L1345.71 859.053C1342.99 858.893 1340.32 859.848 1338.32 861.699C1336.32 863.549 1335.17 866.134 1335.12 868.857L1345.12 869.036ZM1341.6 891.592L1350.62 895.904L1350.63 895.903L1341.6 891.592ZM1320.07 894.556L1327.83 888.246C1327.82 888.242 1327.82 888.239 1327.82 888.235L1320.07 894.556ZM1315.99 882.43L1325.92 881.257L1325.92 881.245L1315.99 882.43ZM928.575 749.301H938.575C938.575 743.778 934.098 739.301 928.575 739.301V749.301ZM928.575 922.147V932.147C934.098 932.147 938.575 927.67 938.575 922.147H928.575ZM889.73 749.301V739.301C884.208 739.301 879.73 743.778 879.73 749.301H889.73ZM889.73 886.621L898.78 890.876C899.406 889.545 899.73 888.092 899.73 886.621H889.73ZM882.833 894.511L877.287 886.189C877.28 886.194 877.272 886.199 877.265 886.204L882.833 894.511ZM864.679 892.681L873.577 888.117L873.575 888.113L864.679 892.681ZM862.145 749.301H872.145C872.145 743.778 867.668 739.301 862.145 739.301V749.301ZM823.301 749.301V739.301C817.778 739.301 813.301 743.778 813.301 749.301H823.301ZM831.462 913.686L839.564 907.824L839.561 907.819L831.462 913.686ZM893.952 900.999V890.999C890.213 890.999 886.786 893.085 885.069 896.407L893.952 900.999ZM894.794 900.999L904.669 899.421C903.894 894.569 899.708 890.999 894.794 890.999V900.999ZM898.174 922.147L888.299 923.725C889.074 928.577 893.26 932.147 898.174 932.147V922.147ZM1127.77 922.147V932.147C1133.3 932.147 1137.77 927.67 1137.77 922.147H1127.77ZM1127.77 749.301H1137.77C1137.77 743.778 1133.3 739.301 1127.77 739.301V749.301ZM1097.37 922.147L1087.5 923.725C1088.27 928.577 1092.46 932.147 1097.37 932.147V922.147ZM1093.99 900.999L1103.87 899.421C1103.09 894.569 1098.91 890.999 1093.99 890.999V900.999ZM1093.15 900.999V890.999C1089.42 890.999 1085.99 893.084 1084.27 896.404L1093.15 900.999ZM1030.66 913.686L1038.76 907.824L1038.76 907.819L1030.66 913.686ZM1022.5 749.301V739.301C1016.98 739.301 1012.5 743.778 1012.5 749.301H1022.5ZM1061.34 749.301H1071.34C1071.34 743.778 1066.87 739.301 1061.34 739.301V749.301ZM1063.88 892.681L1054.98 897.249L1054.98 897.251L1063.88 892.681ZM1082.03 894.511L1076.49 886.189C1076.48 886.194 1076.47 886.199 1076.46 886.204L1082.03 894.511ZM1088.93 886.621L1097.98 890.876C1098.61 889.545 1098.93 888.092 1098.93 886.621H1088.93ZM1088.93 749.301V739.301C1083.41 739.301 1078.93 743.778 1078.93 749.301H1088.93ZM1034.12 716.897V726.897C1039.65 726.897 1044.12 722.42 1044.12 716.897H1034.12ZM995.561 716.897V706.897C990.038 706.897 985.561 711.374 985.561 716.897H995.561ZM1034.12 685.6H1044.12C1044.12 680.077 1039.65 675.6 1034.12 675.6V685.6ZM919 685.6V675.6C913.477 675.6 909 680.077 909 685.6H919ZM919 716.897H909C909 722.42 913.477 726.897 919 726.897V716.897ZM957.562 716.897H967.562C967.562 711.374 963.085 706.897 957.562 706.897V716.897ZM957.562 922.17H947.562C947.562 927.693 952.04 932.17 957.562 932.17V922.17ZM995.561 922.17V932.17C1001.08 932.17 1005.56 927.693 1005.56 922.17H995.561ZM493.802 683.897C507.275 687.504 517.917 698.16 521.524 711.673L540.847 706.516C535.4 686.106 519.373 670.038 498.974 664.577L493.802 683.897ZM342.605 666C342.605 676 342.605 676 342.606 676C342.607 676 342.608 676 342.609 676C342.613 676 342.618 676 342.625 676C342.639 676 342.66 676 342.689 676C342.746 676 342.833 676 342.948 676C343.178 676 343.522 676.001 343.973 676.002C344.874 676.004 346.203 676.008 347.907 676.016C351.315 676.032 356.223 676.064 362.21 676.128C374.188 676.256 390.466 676.513 407.688 677.025C424.926 677.538 443.029 678.305 458.681 679.449C474.614 680.613 487.163 682.116 493.796 683.896L498.98 664.579C490.265 662.24 475.917 660.654 460.138 659.502C444.078 658.328 425.653 657.551 408.283 657.034C390.896 656.517 374.484 656.258 362.424 656.129C356.392 656.065 351.444 656.032 348.001 656.016C346.279 656.008 344.934 656.004 344.017 656.002C343.559 656.001 343.207 656.001 342.97 656C342.851 656 342.761 656 342.7 656C342.669 656 342.646 656 342.63 656C342.622 656 342.616 656 342.612 656C342.61 656 342.608 656 342.607 656C342.606 656 342.605 656 342.605 666ZM191.417 683.896C198.05 682.116 210.598 680.613 226.531 679.449C242.183 678.305 260.285 677.538 277.523 677.025C294.745 676.513 311.023 676.256 323 676.128C328.987 676.064 333.895 676.032 337.303 676.016C339.007 676.008 340.336 676.004 341.237 676.002C341.688 676.001 342.032 676 342.262 676C342.377 676 342.463 676 342.521 676C342.55 676 342.571 676 342.585 676C342.592 676 342.597 676 342.601 676C342.602 676 342.603 676 342.604 676C342.605 676 342.605 676 342.605 666C342.605 656 342.604 656 342.603 656C342.602 656 342.6 656 342.598 656C342.594 656 342.588 656 342.58 656C342.564 656 342.541 656 342.51 656C342.449 656 342.359 656 342.24 656C342.003 656.001 341.651 656.001 341.193 656.002C340.276 656.004 338.931 656.008 337.209 656.016C333.766 656.032 328.818 656.065 322.786 656.129C310.726 656.258 294.315 656.517 276.928 657.034C259.558 657.551 241.134 658.328 225.074 659.502C209.295 660.654 194.948 662.24 186.233 664.579L191.417 683.896ZM163.689 711.673C167.295 698.16 177.938 687.504 191.411 683.897L186.239 664.577C165.84 670.038 149.812 686.106 144.365 706.517L163.689 711.673ZM145.801 803.998C155.801 803.998 155.801 803.998 155.801 803.999C155.801 803.998 155.801 803.998 155.801 803.998C155.801 803.997 155.801 803.994 155.801 803.991C155.801 803.985 155.801 803.975 155.801 803.962C155.801 803.934 155.801 803.891 155.801 803.834C155.801 803.718 155.802 803.543 155.803 803.312C155.805 802.849 155.809 802.161 155.816 801.27C155.832 799.488 155.864 796.899 155.927 793.692C156.054 787.273 156.308 778.403 156.816 768.595C157.846 748.679 159.878 725.92 163.688 711.679L144.367 706.51C139.95 723.021 137.869 747.714 136.842 767.562C136.321 777.635 136.061 786.725 135.931 793.296C135.866 796.584 135.834 799.246 135.817 801.093C135.809 802.016 135.805 802.736 135.803 803.228C135.802 803.474 135.801 803.663 135.801 803.793C135.801 803.857 135.801 803.907 135.801 803.941C135.801 803.958 135.801 803.972 135.801 803.981C135.801 803.986 135.801 803.99 135.801 803.993C135.801 803.994 135.801 803.995 135.801 803.996C135.801 803.997 135.801 803.998 145.801 803.998ZM163.688 896.318C159.878 882.078 157.846 859.32 156.816 839.403C156.308 829.594 156.054 820.724 155.927 814.305C155.864 811.098 155.832 808.508 155.816 806.726C155.809 805.835 155.805 805.147 155.803 804.684C155.802 804.453 155.801 804.278 155.801 804.163C155.801 804.105 155.801 804.062 155.801 804.035C155.801 804.021 155.801 804.011 155.801 804.005C155.801 804.002 155.801 804 155.801 803.998C155.801 803.998 155.801 803.998 155.801 803.998C155.801 803.998 155.801 803.998 145.801 803.998C135.801 803.998 135.801 803.999 135.801 804C135.801 804.001 135.801 804.002 135.801 804.003C135.801 804.006 135.801 804.01 135.801 804.015C135.801 804.024 135.801 804.038 135.801 804.055C135.801 804.089 135.801 804.139 135.801 804.204C135.801 804.333 135.802 804.522 135.803 804.768C135.805 805.26 135.809 805.98 135.817 806.903C135.834 808.75 135.866 811.413 135.931 814.701C136.061 821.272 136.321 830.362 136.842 840.436C137.869 860.284 139.95 884.978 144.367 901.487L163.688 896.318ZM191.409 924.099C177.939 920.496 167.295 909.837 163.689 896.324L144.365 901.48C149.811 921.889 165.839 937.962 186.241 943.419L191.409 924.099ZM342.605 942C342.605 932 342.605 932 342.604 932C342.603 932 342.602 932 342.601 932C342.597 932 342.592 932 342.585 932C342.571 932 342.55 932 342.521 932C342.463 932 342.377 932 342.262 932C342.032 932 341.688 931.999 341.237 931.998C340.336 931.996 339.007 931.992 337.303 931.984C333.895 931.968 328.987 931.936 323.001 931.872C311.023 931.743 294.745 931.487 277.523 930.974C260.286 930.461 242.183 929.694 226.532 928.55C210.599 927.385 198.05 925.882 191.418 924.101L186.232 943.417C194.947 945.757 209.295 947.343 225.074 948.497C241.134 949.671 259.558 950.448 276.928 950.965C294.315 951.483 310.726 951.741 322.786 951.871C328.818 951.935 333.766 951.968 337.209 951.984C338.931 951.992 340.276 951.996 341.193 951.998C341.651 951.999 342.003 951.999 342.24 952C342.359 952 342.449 952 342.51 952C342.541 952 342.564 952 342.58 952C342.588 952 342.594 952 342.598 952C342.6 952 342.602 952 342.603 952C342.604 952 342.605 952 342.605 942ZM493.795 924.101C487.162 925.882 474.614 927.385 458.68 928.55C443.029 929.694 424.926 930.461 407.688 930.974C390.466 931.487 374.188 931.743 362.21 931.872C356.223 931.936 351.315 931.968 347.907 931.984C346.203 931.992 344.874 931.996 343.973 931.998C343.522 931.999 343.178 932 342.948 932C342.833 932 342.746 932 342.689 932C342.66 932 342.639 932 342.625 932C342.618 932 342.613 932 342.609 932C342.608 932 342.607 932 342.606 932C342.605 932 342.605 932 342.605 942C342.605 952 342.606 952 342.607 952C342.608 952 342.61 952 342.612 952C342.616 952 342.622 952 342.63 952C342.646 952 342.669 952 342.7 952C342.761 952 342.851 952 342.97 952C343.207 951.999 343.559 951.999 344.017 951.998C344.934 951.996 346.279 951.992 348.001 951.984C351.444 951.968 356.392 951.935 362.424 951.871C374.484 951.741 390.896 951.483 408.283 950.965C425.654 950.448 444.078 949.671 460.138 948.497C475.917 947.343 490.266 945.757 498.981 943.417L493.795 924.101ZM521.524 896.323C517.917 909.837 507.274 920.496 493.804 924.099L498.972 943.419C519.374 937.962 535.401 921.889 540.847 901.481L521.524 896.323ZM539.412 803.998C529.412 803.998 529.412 803.998 529.412 803.998C529.412 803.998 529.412 803.998 529.412 803.998C529.412 804 529.412 804.002 529.412 804.005C529.412 804.011 529.412 804.021 529.412 804.035C529.412 804.062 529.412 804.105 529.411 804.163C529.411 804.278 529.411 804.453 529.41 804.684C529.408 805.147 529.404 805.835 529.396 806.726C529.38 808.508 529.349 811.098 529.285 814.305C529.158 820.724 528.904 829.594 528.397 839.403C527.367 859.32 525.335 882.079 521.525 896.318L540.846 901.487C545.262 884.978 547.344 860.284 548.37 840.436C548.891 830.362 549.151 821.272 549.281 814.701C549.346 811.413 549.379 808.75 549.395 806.903C549.403 805.98 549.407 805.26 549.41 804.768C549.411 804.522 549.411 804.333 549.411 804.204C549.411 804.139 549.412 804.089 549.412 804.055C549.412 804.038 549.412 804.024 549.412 804.015C549.412 804.01 549.412 804.006 549.412 804.003C549.412 804.002 549.412 804.001 549.412 804C549.412 803.999 549.412 803.998 539.412 803.998ZM521.525 711.679C525.335 725.92 527.367 748.679 528.397 768.595C528.904 778.403 529.158 787.273 529.285 793.692C529.349 796.899 529.38 799.488 529.396 801.27C529.404 802.161 529.408 802.849 529.41 803.312C529.411 803.543 529.411 803.718 529.411 803.834C529.412 803.891 529.412 803.934 529.412 803.962C529.412 803.975 529.412 803.985 529.412 803.991C529.412 803.994 529.412 803.997 529.412 803.998C529.412 803.998 529.412 803.998 529.412 803.999C529.412 803.998 529.412 803.998 539.412 803.998C549.412 803.998 549.412 803.997 549.412 803.996C549.412 803.995 549.412 803.994 549.412 803.993C549.412 803.99 549.412 803.986 549.412 803.981C549.412 803.972 549.412 803.958 549.412 803.941C549.412 803.907 549.411 803.857 549.411 803.793C549.411 803.663 549.411 803.474 549.41 803.228C549.407 802.736 549.403 802.016 549.395 801.093C549.379 799.246 549.346 796.584 549.281 793.296C549.151 786.725 548.891 777.635 548.37 767.562C547.344 747.714 545.262 723.021 540.846 706.511L521.525 711.679ZM400.451 795.391L298.193 854.532L308.206 871.845L410.464 812.704L400.451 795.391ZM298.192 753.557L400.45 812.704L410.464 795.391L308.206 736.244L298.192 753.557ZM313.199 863.188V744.9H293.199V863.188H313.199ZM1229.07 878.433C1230.2 870.6 1230.73 860.183 1230.73 847.399H1210.73C1210.73 859.807 1210.21 869.129 1209.28 875.577L1229.07 878.433ZM1221.73 898.536C1225.92 893.372 1227.97 886.064 1229.07 878.431L1209.28 875.579C1208.32 882.246 1206.89 885.084 1206.2 885.93L1221.73 898.536ZM1204.12 906.745C1211.02 906.745 1217.26 904.055 1221.74 898.531L1206.2 885.935C1205.8 886.428 1205.46 886.745 1204.12 886.745V906.745ZM1190.4 903.229C1194.65 905.59 1199.28 906.745 1204.12 906.745V886.745C1202.56 886.745 1201.29 886.4 1200.1 885.743L1190.4 903.229ZM1179.92 892.615C1182.41 897.062 1185.89 900.74 1190.42 903.242L1200.08 885.73C1199.17 885.225 1198.24 884.399 1197.35 882.822L1179.92 892.615ZM1178.63 789.595V887.719H1198.63V789.595H1178.63ZM1188.53 770.762C1183.87 775.157 1180.75 780.66 1179 786.902L1198.27 792.287C1199.14 789.144 1200.53 786.937 1202.25 785.307L1188.53 770.762ZM1205.8 763.526C1199.07 763.526 1193.24 766.325 1188.54 770.751L1202.24 785.318C1203.92 783.74 1205.03 783.526 1205.8 783.526V763.526ZM1223.16 772.456C1219.04 766.549 1212.86 763.526 1205.8 763.526V783.526C1206.13 783.526 1206.33 783.559 1206.43 783.58C1206.52 783.6 1206.54 783.614 1206.51 783.603C1206.49 783.591 1206.48 783.583 1206.51 783.602C1206.53 783.625 1206.62 783.708 1206.75 783.897L1223.16 772.456ZM1229.39 792.682C1228.5 784.991 1226.79 777.69 1223.16 772.469L1206.74 783.884C1207.42 784.864 1208.72 788 1209.52 794.974L1229.39 792.682ZM1230.73 825.125C1230.73 811.466 1230.3 800.581 1229.39 792.681L1209.52 794.974C1210.3 801.731 1210.73 811.716 1210.73 825.125H1230.73ZM1230.73 847.399V825.125H1210.73V847.399H1230.73ZM1238.11 760.532C1241.25 763.453 1244.42 769.076 1246.55 779.004L1266.11 774.791C1263.55 762.921 1259.11 752.758 1251.74 745.896L1238.11 760.532ZM1223.26 755.886C1230.66 755.886 1235.19 757.816 1238.12 760.539L1251.74 745.89C1244.16 738.843 1234.24 735.886 1223.26 735.886V755.886ZM1208.73 760.322C1213.37 757.301 1218.14 755.886 1223.26 755.886V735.886C1214.11 735.886 1205.56 738.515 1197.81 743.569L1208.73 760.322ZM1197.81 772.443C1200.39 767.414 1204 763.415 1208.74 760.318L1197.8 743.573C1190.16 748.564 1184.19 755.184 1180.02 763.312L1197.81 772.443ZM1188.63 777.878H1188.92V757.878H1188.63V777.878ZM1178.63 676.8L1178.63 767.878L1198.63 767.878L1198.63 676.801L1178.63 676.8ZM1151.2 686.801H1188.63V666.801H1151.2V686.801ZM1161.2 922.111V676.801H1141.2V922.111H1161.2ZM1183.29 912.111H1151.2V932.111H1183.29V912.111ZM1177.51 903.416L1173.56 919.767L1193.01 924.455L1196.95 908.104L1177.51 903.416ZM1188.07 895.76H1187.23V915.76H1188.07V895.76ZM1206.49 910.864C1202.09 908.386 1199.02 905.176 1196.96 901.18L1179.18 910.339C1183.12 917.993 1189.06 923.996 1196.67 928.288L1206.49 910.864ZM1221.57 914.649C1215.86 914.649 1210.9 913.348 1206.49 910.863L1196.67 928.288C1204.27 932.567 1212.64 934.649 1221.57 934.649V914.649ZM1241.66 901.913C1239.22 906.68 1236.38 909.729 1233.35 911.631C1230.34 913.519 1226.54 914.649 1221.57 914.649V934.649C1229.72 934.649 1237.33 932.747 1243.98 928.573C1250.61 924.413 1255.71 918.37 1259.46 911.015L1241.66 901.913ZM1249.85 849.647C1249.85 874.989 1246.74 891.959 1241.65 901.917L1259.47 911.011C1266.77 896.71 1269.85 875.813 1269.85 849.647H1249.85ZM1249.85 822.297V849.647H1269.85V822.297H1249.85ZM1246.55 778.998C1248.68 788.893 1249.85 803.211 1249.85 822.297H1269.85C1269.85 802.662 1268.67 786.718 1266.11 774.797L1246.55 778.998ZM568.662 688.264L612.856 848.141L632.133 842.812L587.939 682.935L568.662 688.264ZM616.863 675.6H578.301V695.6H616.863V675.6ZM642.123 755.978L626.643 683.511L607.084 687.689L622.564 760.156L642.123 755.978ZM650.96 802.271C649.039 789.376 646.083 773.91 642.109 755.911L622.579 760.223C626.492 777.944 629.348 792.928 631.178 805.218L650.96 802.271ZM642.197 793.745H641.069V813.745H642.197V793.745ZM641.139 756.275C636.635 777.519 633.664 792.932 632.301 802.306L652.093 805.184C653.354 796.514 656.201 781.663 660.704 760.423L641.139 756.275ZM657.201 683.446L641.157 756.195L660.687 760.503L676.732 687.753L657.201 683.446ZM705.529 675.6H666.967V695.6H705.529V675.6ZM670.405 848.172L715.159 688.295L695.899 682.904L651.145 842.781L670.405 848.172ZM670.775 922.176V845.477H650.775V922.176H670.775ZM622.494 932.176H660.775V912.176H622.494V932.176ZM612.494 845.477V922.176H632.494V845.477H612.494ZM770.1 893.553C772.951 886.092 773.996 875.305 773.996 862.354H753.996C753.996 874.966 752.875 882.601 751.418 886.413L770.1 893.553ZM749.36 908.441C753.89 908.441 758.373 907.234 762.248 904.359C766.047 901.541 768.525 897.669 770.099 893.557L751.419 886.41C750.834 887.939 750.334 888.295 750.332 888.296C750.32 888.305 750.3 888.322 750.216 888.348C750.117 888.378 749.855 888.441 749.36 888.441V908.441ZM728.708 893.415C730.219 897.549 732.653 901.468 736.456 904.323C740.333 907.236 744.833 908.441 749.36 908.441V888.441C748.862 888.441 748.607 888.378 748.522 888.352C748.499 888.345 748.484 888.339 748.476 888.336C748.468 888.332 748.464 888.33 748.464 888.33C748.464 888.33 748.465 888.331 748.467 888.332C748.469 888.333 748.469 888.334 748.467 888.332C748.465 888.33 748.443 888.314 748.402 888.271C748.36 888.227 748.293 888.148 748.205 888.021C748.027 887.762 747.768 887.303 747.494 886.552L728.708 893.415ZM725.004 862.354C725.004 875.285 725.996 886.019 728.712 893.426L747.49 886.541C746.072 882.674 745.004 874.986 745.004 862.354H725.004ZM725.004 808.497V862.354H745.004V808.497H725.004ZM728.881 777.765C726.056 785.273 725.004 795.861 725.004 808.497H745.004C745.004 796.318 746.11 788.769 747.6 784.808L728.881 777.765ZM749.36 762.686C744.8 762.686 740.336 763.975 736.52 766.927C732.814 769.793 730.415 773.686 728.88 777.767L747.601 784.805C748.222 783.155 748.755 782.748 748.756 782.747C748.757 782.745 748.741 782.753 748.756 782.748C748.784 782.739 748.962 782.686 749.36 782.686V762.686ZM770.117 777.763C768.56 773.626 766.102 769.713 762.314 766.854C758.438 763.929 753.931 762.686 749.36 762.686V782.686C749.838 782.686 750.084 782.748 750.168 782.774C750.239 782.796 750.253 782.809 750.266 782.819C750.278 782.827 750.799 783.215 751.4 784.81L770.117 777.763ZM773.996 808.497C773.996 795.856 772.939 785.274 770.12 777.77L751.397 784.803C752.887 788.769 753.996 796.322 753.996 808.497H773.996ZM773.996 862.354V808.497H753.996V862.354H773.996ZM722.726 908.763C717.272 905.083 712.892 899.084 710.114 889.688L690.935 895.357C694.715 908.147 701.408 918.506 711.539 925.342L722.726 908.763ZM749.361 914.948C736.788 914.948 728.266 912.508 722.733 908.768L711.532 925.337C721.564 932.119 734.529 934.948 749.361 934.948V914.948ZM775.495 908.86C769.903 912.572 761.515 914.948 749.361 914.948V934.948C763.853 934.948 776.569 932.153 786.556 925.523L775.495 908.86ZM788.365 889.7C785.397 899.257 780.919 905.263 775.499 908.857L786.552 925.525C796.703 918.794 803.487 908.442 807.466 895.631L788.365 889.7ZM793.123 848.256C793.123 866.177 791.418 879.862 788.365 889.702L807.466 895.629C811.354 883.099 813.123 867.178 813.123 848.256H793.123ZM793.123 823.161V848.256H813.123V823.161H793.123ZM788.247 781.503C791.368 791.307 793.123 805.056 793.123 823.161H813.123C813.123 804.046 811.304 788 807.305 775.437L788.247 781.503ZM775.238 762.049C780.661 765.761 785.18 771.887 788.249 781.509L807.303 775.431C803.238 762.684 796.495 752.362 786.534 745.545L775.238 762.049ZM750.207 755.9C761.671 755.9 769.718 758.275 775.242 762.052L786.53 745.542C776.664 738.797 764.261 735.9 750.207 735.9V755.9ZM724.261 762.048C730.127 758.244 738.509 755.9 750.207 755.9V735.9C736.004 735.9 723.462 738.73 713.38 745.267L724.261 762.048ZM710.716 781.484C713.935 771.807 718.621 765.702 724.258 762.05L713.384 745.265C703.06 751.953 696.024 762.29 691.739 775.17L710.716 781.484ZM705.6 823.161C705.6 805.086 707.435 791.337 710.715 781.486L691.74 775.168C687.509 787.874 685.6 804.016 685.6 823.161H705.6ZM705.6 848.256V823.161H685.6V848.256H705.6ZM710.112 889.682C707.213 879.897 705.6 866.215 705.6 848.256H685.6C685.6 867.14 687.265 882.974 690.936 895.363L710.112 889.682ZM1312.14 769.719C1308.4 774.367 1306.78 780.636 1306.06 786.798L1325.92 789.143C1326.19 786.837 1326.57 785.14 1326.96 783.943C1327.16 783.355 1327.34 782.936 1327.48 782.654C1327.55 782.515 1327.61 782.416 1327.65 782.35C1327.67 782.318 1327.69 782.294 1327.7 782.279C1327.71 782.264 1327.72 782.256 1327.72 782.257L1312.14 769.719ZM1329.08 762.32C1322.94 762.32 1316.57 764.225 1312.15 769.707L1327.71 782.269C1327.66 782.329 1327.59 782.4 1327.51 782.461C1327.42 782.52 1327.38 782.533 1327.42 782.52C1327.5 782.487 1327.98 782.32 1329.08 782.32V762.32ZM1345.89 769.418C1341.42 764.095 1335.09 762.32 1329.08 762.32V782.32C1330.22 782.32 1330.74 782.487 1330.86 782.533C1330.91 782.553 1330.88 782.546 1330.8 782.489C1330.72 782.431 1330.63 782.356 1330.57 782.279L1345.89 769.418ZM1352.22 786.67C1351.41 780.472 1349.76 774.038 1345.89 769.424L1330.56 782.272C1330.5 782.196 1330.82 782.561 1331.25 783.829C1331.66 785.063 1332.07 786.836 1332.39 789.271L1352.22 786.67ZM1353.43 813.205C1353.43 802 1353.06 793.068 1352.22 786.676L1332.39 789.265C1333.05 794.343 1333.43 802.236 1333.43 813.205H1353.43ZM1353.43 825.613V813.205H1333.43V825.613H1353.43ZM1315.01 835.613H1343.43V815.613H1315.01V835.613ZM1305.01 813.205V825.613H1325.01V813.205H1305.01ZM1306.06 786.787C1305.32 792.952 1305.01 801.854 1305.01 813.205H1325.01C1325.01 801.999 1325.33 794.082 1325.92 789.154L1306.06 786.787ZM1305.01 848.735V857.478H1325.01V848.735H1305.01ZM1380.02 838.735H1315.01V858.735H1380.02V838.735ZM1370.02 819.128V848.735H1390.02V819.128H1370.02ZM1366.03 778.979C1368.58 788.035 1370.02 801.271 1370.02 819.128H1390.02C1390.02 800.524 1388.56 785.186 1385.29 773.562L1366.03 778.979ZM1354.94 761.674C1359.71 764.945 1363.6 770.335 1366.04 778.98L1385.29 773.561C1381.9 761.532 1375.75 751.693 1366.26 745.183L1354.94 761.674ZM1329.92 756.1C1342.24 756.1 1350.16 758.397 1354.95 761.678L1366.25 745.178C1356.78 738.69 1344.24 736.1 1329.92 736.1V756.1ZM1297.28 769.558C1302.79 761.317 1312.65 756.1 1329.92 756.1V736.1C1308.53 736.1 1291.09 742.819 1280.65 758.447L1297.28 769.558ZM1287 820.819C1287 795.472 1290.98 778.992 1297.28 769.557L1280.65 758.447C1271 772.893 1267 794.283 1267 820.819H1287ZM1287 850.99V820.819H1267V850.99H1287ZM1296.97 901.429C1290.82 891.828 1287 875.548 1287 850.99H1267C1267 876.815 1270.87 897.763 1280.12 912.212L1296.97 901.429ZM1328.79 914.866C1311.77 914.866 1302.22 909.649 1296.97 901.435L1280.12 912.206C1290.25 928.06 1307.54 934.866 1328.79 934.866V914.866ZM1359.1 905.61C1352.78 911.322 1343.15 914.866 1328.79 914.866V934.866C1346.33 934.866 1361.39 930.509 1372.52 920.441L1359.1 905.61ZM1368.9 877.215C1368.9 891.422 1365.06 900.218 1359.1 905.61L1372.52 920.442C1384.01 910.041 1388.9 894.962 1388.9 877.215H1368.9ZM1368.69 872.245C1368.81 873.153 1368.9 874.747 1368.9 877.215H1388.9C1388.9 874.424 1388.8 871.882 1388.54 869.772L1368.69 872.245ZM1344.53 879.018L1378.03 880.991L1379.2 861.026L1345.71 859.053L1344.53 879.018ZM1350.63 895.903C1353.77 889.323 1354.92 879.935 1355.12 869.214L1335.12 868.857C1334.93 879.193 1333.74 884.844 1332.58 887.28L1350.63 895.903ZM1329.64 908.363C1333.82 908.363 1338.07 907.551 1341.92 905.374C1345.86 903.144 1348.75 899.834 1350.62 895.904L1332.58 887.279C1332.42 887.612 1332.29 887.77 1332.24 887.832C1332.19 887.888 1332.14 887.925 1332.07 887.967C1331.93 888.046 1331.28 888.363 1329.64 888.363V908.363ZM1312.31 900.865C1316.84 906.434 1323.34 908.363 1329.64 908.363V888.363C1328.43 888.363 1327.86 888.182 1327.71 888.119C1327.63 888.091 1327.64 888.087 1327.7 888.125C1327.75 888.165 1327.8 888.212 1327.83 888.246L1312.31 900.865ZM1306.06 883.602C1306.79 889.849 1308.47 896.152 1312.32 900.877L1327.82 888.235C1327.53 887.883 1326.49 886.104 1325.92 881.257L1306.06 883.602ZM1305.01 857.478C1305.01 868.647 1305.32 877.455 1306.06 883.614L1325.92 881.245C1325.33 876.318 1325.01 868.488 1325.01 857.478H1305.01ZM918.575 749.301V922.147H938.575V749.301H918.575ZM889.73 759.301H928.575V739.301H889.73V759.301ZM899.73 886.621V749.301H879.73V886.621H899.73ZM888.378 902.832C892.909 899.813 896.46 895.81 898.78 890.876L880.681 882.365C879.995 883.825 878.95 885.081 877.287 886.189L888.378 902.832ZM873.122 907.614C878.671 907.614 883.821 905.887 888.4 902.817L877.265 886.204C875.656 887.283 874.332 887.614 873.122 887.614V907.614ZM855.781 897.244C857.376 900.354 859.746 903.109 863.013 905.017C866.243 906.903 869.752 907.614 873.122 907.614V887.614C872.829 887.614 872.717 887.583 872.742 887.589C872.775 887.597 872.912 887.637 873.099 887.746C873.289 887.857 873.441 887.987 873.542 888.098C873.637 888.203 873.636 888.233 873.577 888.117L855.781 897.244ZM852.145 876.187C852.145 884.123 852.932 891.696 855.783 897.248L873.575 888.113C873.049 887.09 872.145 883.672 872.145 876.187H852.145ZM852.145 749.301V876.187H872.145V749.301H852.145ZM823.301 759.301H862.145V739.301H823.301V759.301ZM833.301 878.442V749.301H813.301V878.442H833.301ZM839.561 907.819C835.966 902.857 833.301 893.676 833.301 878.442H813.301C813.301 895.164 816.072 909.487 823.364 919.552L839.561 907.819ZM856.796 914.964C847.715 914.964 842.682 912.133 839.564 907.824L823.361 919.548C831.129 930.284 842.983 934.964 856.796 934.964V914.964ZM885.069 896.407C881.565 903.185 877.483 907.71 873.049 910.569C868.661 913.399 863.368 914.964 856.796 914.964V934.964C866.735 934.964 875.89 932.535 883.888 927.377C891.84 922.249 898.08 914.791 902.836 905.591L885.069 896.407ZM894.794 890.999H893.952V910.999H894.794V890.999ZM908.049 920.569L904.669 899.421L884.92 902.577L888.299 923.725L908.049 920.569ZM928.575 912.147H898.174V932.147H928.575V912.147ZM1137.77 922.147V749.301H1117.77V922.147H1137.77ZM1097.37 932.147H1127.77V912.147H1097.37V932.147ZM1084.12 902.577L1087.5 923.725L1107.25 920.569L1103.87 899.421L1084.12 902.577ZM1093.15 910.999H1093.99V890.999H1093.15V910.999ZM1056 934.964C1065.93 934.964 1075.09 932.535 1083.09 927.377C1091.04 922.249 1097.28 914.792 1102.04 905.594L1084.27 896.404C1080.77 903.184 1076.68 907.709 1072.25 910.569C1067.86 913.399 1062.57 914.964 1056 914.964V934.964ZM1022.56 919.548C1030.33 930.284 1042.18 934.964 1056 934.964V914.964C1046.91 914.964 1041.88 912.133 1038.76 907.824L1022.56 919.548ZM1012.5 878.442C1012.5 895.164 1015.27 909.487 1022.56 919.552L1038.76 907.819C1035.17 902.857 1032.5 893.676 1032.5 878.442H1012.5ZM1012.5 749.301V878.442H1032.5V749.301H1012.5ZM1061.34 739.301H1022.5V759.301H1061.34V739.301ZM1071.34 876.187V749.301H1051.34V876.187H1071.34ZM1072.77 888.112C1072.25 887.092 1071.34 883.678 1071.34 876.187H1051.34C1051.34 884.117 1052.13 891.694 1054.98 897.249L1072.77 888.112ZM1072.32 887.614C1072.03 887.614 1071.92 887.583 1071.94 887.589C1071.97 887.597 1072.11 887.637 1072.3 887.745C1072.49 887.856 1072.64 887.986 1072.74 888.096C1072.83 888.199 1072.83 888.228 1072.77 888.111L1054.98 897.251C1056.58 900.357 1058.95 903.111 1062.21 905.017C1065.44 906.903 1068.95 907.614 1072.32 907.614V887.614ZM1076.46 886.204C1074.85 887.283 1073.53 887.614 1072.32 887.614V907.614C1077.87 907.614 1083.02 905.887 1087.6 902.817L1076.46 886.204ZM1079.88 882.365C1079.19 883.825 1078.15 885.081 1076.49 886.189L1087.58 902.832C1092.11 899.813 1095.66 895.81 1097.98 890.876L1079.88 882.365ZM1078.93 749.301V886.621H1098.93V749.301H1078.93ZM1127.77 739.301H1088.93V759.301H1127.77V739.301ZM1034.12 706.897H995.561V726.897H1034.12V706.897ZM1024.12 685.6V716.897H1044.12V685.6H1024.12ZM919 695.6H1034.12V675.6H919V695.6ZM929 716.897V685.6H909V716.897H929ZM957.562 706.897H919V726.897H957.562V706.897ZM967.562 922.17V716.897H947.562V922.17H967.562ZM995.561 912.17H957.562V932.17H995.561V912.17ZM985.561 716.897V922.17H1005.56V716.897H985.561Z" fill="#FF13CF" mask="url(#path-1-outside-1)"/>
<mask id="path-3-outside-2" maskUnits="userSpaceOnUse" x="172.801" y="618" width="1255" height="296" fill="black">
<rect fill="white" x="172.801" y="618" width="1255" height="296"/>
<path fill-rule="evenodd" clip-rule="evenodd" d="M533.388 636.237C550.324 640.771 563.659 654.133 568.186 671.095C576.412 701.846 576.412 765.998 576.412 765.998C576.412 765.998 576.412 830.154 568.186 860.902C563.659 877.863 550.324 891.229 533.388 895.759C502.692 904 379.605 904 379.605 904C379.605 904 256.521 904 225.825 895.759C208.889 891.229 195.553 877.863 191.027 860.902C182.801 830.154 182.801 765.998 182.801 765.998C182.801 765.998 182.801 701.846 191.027 671.095C195.553 654.133 208.889 640.771 225.825 636.237C256.521 628 379.605 628 379.605 628C379.605 628 502.692 628 533.388 636.237ZM1257.73 809.399C1257.73 821.995 1257.21 831.865 1256.17 839.005C1255.14 846.155 1253.41 851.228 1250.97 854.233C1248.53 857.242 1245.24 858.745 1241.12 858.745C1237.92 858.745 1234.97 857.995 1232.25 856.486C1229.53 854.983 1227.33 852.731 1225.63 849.719V751.595C1226.95 746.902 1229.2 743.047 1232.39 740.035C1235.58 737.032 1239.05 735.526 1242.8 735.526C1246.75 735.526 1249.79 737.078 1251.95 740.177C1254.11 743.277 1255.61 748.496 1256.46 755.828C1257.3 763.156 1257.73 773.591 1257.73 787.125V809.399ZM1293.33 738.898C1290.98 727.999 1287.18 720.105 1281.93 715.214C1276.67 710.33 1269.45 707.886 1260.26 707.886C1253.13 707.886 1246.46 709.908 1240.27 713.946C1234.08 717.99 1229.29 723.299 1225.92 729.878H1225.63L1225.63 638.801H1188.2V884.111H1220.29L1224.23 867.76H1225.07C1228.07 873.585 1232.57 878.191 1238.58 881.576C1244.58 884.958 1251.25 886.649 1258.57 886.649C1271.7 886.649 1281.37 880.586 1287.56 868.464C1293.75 856.335 1296.85 837.401 1296.85 811.647V784.297C1296.85 764.937 1295.67 749.806 1293.33 738.898ZM659.494 807.477L615.301 647.6H653.863L669.344 720.067C673.287 737.927 676.193 753.152 678.069 765.745H679.197C680.509 756.723 683.418 741.591 687.922 720.349L703.967 647.6H742.529L697.775 807.477V884.176H659.494V807.477ZM800.996 824.354C800.996 837.135 799.913 846.346 797.759 851.983C795.601 857.624 791.8 860.441 786.36 860.441C780.914 860.441 777.162 857.624 775.101 851.983C773.034 846.346 772.004 837.135 772.004 824.354V770.497C772.004 758.089 773.083 749.021 775.241 743.286C777.396 737.555 781.105 734.686 786.36 734.686C791.8 734.686 795.601 737.555 797.759 743.286C799.913 749.021 800.996 758.089 800.996 770.497V824.354ZM737.524 854.522C740.803 865.615 746.34 873.794 754.133 879.052C761.915 884.313 772.659 886.948 786.361 886.948C799.684 886.948 810.236 884.362 818.025 879.191C825.811 874.028 831.442 865.849 834.916 854.665C838.386 843.48 840.123 828.677 840.123 810.256V785.161C840.123 766.551 838.336 751.654 834.776 740.47C831.209 729.285 825.578 721.061 817.886 715.797C810.191 710.536 799.966 707.9 787.207 707.9C774.256 707.9 763.794 710.487 755.821 715.657C747.84 720.827 741.979 729.049 738.228 740.327C734.472 751.605 732.6 766.551 732.6 785.161V810.256C732.6 828.677 734.239 843.435 737.524 854.522ZM1352.99 749.97C1353.64 744.427 1354.96 740.432 1356.93 737.988C1358.9 735.547 1361.95 734.32 1366.08 734.32C1370.21 734.32 1373.25 735.498 1375.23 737.848C1377.2 740.198 1378.55 744.239 1379.31 749.97C1380.05 755.705 1380.43 764.118 1380.43 775.205V787.613H1352.01V775.205C1352.01 763.927 1352.33 755.517 1352.99 749.97ZM1352.01 819.478V810.735H1417.02V781.128C1417.02 762.898 1415.57 748.611 1412.66 738.271C1409.75 727.933 1404.73 720.319 1397.6 715.428C1390.47 710.543 1380.24 708.1 1366.92 708.1C1347.59 708.1 1333.94 714.068 1325.97 726.002C1317.99 737.943 1314 756.877 1314 782.819V812.99C1314 838.182 1317.85 856.796 1325.54 868.821C1333.24 880.854 1346.66 886.866 1365.79 886.866C1381.74 886.866 1394.09 882.916 1402.81 875.026C1411.54 867.13 1415.9 855.192 1415.9 839.215C1415.9 836.586 1415.8 834.518 1415.62 833.009L1382.12 831.036C1381.93 841.564 1380.76 849.083 1378.6 853.592C1376.44 858.107 1372.45 860.363 1366.64 860.363C1362.32 860.363 1359.13 859.094 1357.07 856.556C1355 854.018 1353.64 849.977 1352.99 844.43C1352.33 838.887 1352.01 830.568 1352.01 819.478ZM965.575 884.147V711.301H926.73V848.621C925.227 851.818 922.93 854.447 919.833 856.511C916.738 858.585 913.501 859.614 910.122 859.614C906.183 859.614 903.367 857.972 901.679 854.681C899.991 851.393 899.145 845.898 899.145 838.187V711.301H860.301V840.442C860.301 856.42 863.019 868.172 868.462 875.686C873.905 883.209 882.349 886.964 893.796 886.964C910.307 886.964 922.693 878.977 930.952 862.999H931.794L935.174 884.147H965.575ZM1164.77 711.301V884.147H1134.37L1130.99 862.999H1130.15C1121.89 878.977 1109.51 886.964 1093 886.964C1081.55 886.964 1073.1 883.209 1067.66 875.686C1062.22 868.172 1059.5 856.42 1059.5 840.442V711.301H1098.34V838.187C1098.34 845.898 1099.19 851.393 1100.88 854.681C1102.57 857.972 1105.38 859.614 1109.32 859.614C1112.7 859.614 1115.94 858.585 1119.03 856.511C1122.13 854.447 1124.43 851.818 1125.93 848.621V711.301H1164.77ZM1032.56 678.897H1071.12V647.6H956V678.897H994.562V884.17H1032.56V678.897Z"/>
</mask>
<path fill-rule="evenodd" clip-rule="evenodd" d="M533.388 636.237C550.324 640.771 563.659 654.133 568.186 671.095C576.412 701.846 576.412 765.998 576.412 765.998C576.412 765.998 576.412 830.154 568.186 860.902C563.659 877.863 550.324 891.229 533.388 895.759C502.692 904 379.605 904 379.605 904C379.605 904 256.521 904 225.825 895.759C208.889 891.229 195.553 877.863 191.027 860.902C182.801 830.154 182.801 765.998 182.801 765.998C182.801 765.998 182.801 701.846 191.027 671.095C195.553 654.133 208.889 640.771 225.825 636.237C256.521 628 379.605 628 379.605 628C379.605 628 502.692 628 533.388 636.237ZM1257.73 809.399C1257.73 821.995 1257.21 831.865 1256.17 839.005C1255.14 846.155 1253.41 851.228 1250.97 854.233C1248.53 857.242 1245.24 858.745 1241.12 858.745C1237.92 858.745 1234.97 857.995 1232.25 856.486C1229.53 854.983 1227.33 852.731 1225.63 849.719V751.595C1226.95 746.902 1229.2 743.047 1232.39 740.035C1235.58 737.032 1239.05 735.526 1242.8 735.526C1246.75 735.526 1249.79 737.078 1251.95 740.177C1254.11 743.277 1255.61 748.496 1256.46 755.828C1257.3 763.156 1257.73 773.591 1257.73 787.125V809.399ZM1293.33 738.898C1290.98 727.999 1287.18 720.105 1281.93 715.214C1276.67 710.33 1269.45 707.886 1260.26 707.886C1253.13 707.886 1246.46 709.908 1240.27 713.946C1234.08 717.99 1229.29 723.299 1225.92 729.878H1225.63L1225.63 638.801H1188.2V884.111H1220.29L1224.23 867.76H1225.07C1228.07 873.585 1232.57 878.191 1238.58 881.576C1244.58 884.958 1251.25 886.649 1258.57 886.649C1271.7 886.649 1281.37 880.586 1287.56 868.464C1293.75 856.335 1296.85 837.401 1296.85 811.647V784.297C1296.85 764.937 1295.67 749.806 1293.33 738.898ZM659.494 807.477L615.301 647.6H653.863L669.344 720.067C673.287 737.927 676.193 753.152 678.069 765.745H679.197C680.509 756.723 683.418 741.591 687.922 720.349L703.967 647.6H742.529L697.775 807.477V884.176H659.494V807.477ZM800.996 824.354C800.996 837.135 799.913 846.346 797.759 851.983C795.601 857.624 791.8 860.441 786.36 860.441C780.914 860.441 777.162 857.624 775.101 851.983C773.034 846.346 772.004 837.135 772.004 824.354V770.497C772.004 758.089 773.083 749.021 775.241 743.286C777.396 737.555 781.105 734.686 786.36 734.686C791.8 734.686 795.601 737.555 797.759 743.286C799.913 749.021 800.996 758.089 800.996 770.497V824.354ZM737.524 854.522C740.803 865.615 746.34 873.794 754.133 879.052C761.915 884.313 772.659 886.948 786.361 886.948C799.684 886.948 810.236 884.362 818.025 879.191C825.811 874.028 831.442 865.849 834.916 854.665C838.386 843.48 840.123 828.677 840.123 810.256V785.161C840.123 766.551 838.336 751.654 834.776 740.47C831.209 729.285 825.578 721.061 817.886 715.797C810.191 710.536 799.966 707.9 787.207 707.9C774.256 707.9 763.794 710.487 755.821 715.657C747.84 720.827 741.979 729.049 738.228 740.327C734.472 751.605 732.6 766.551 732.6 785.161V810.256C732.6 828.677 734.239 843.435 737.524 854.522ZM1352.99 749.97C1353.64 744.427 1354.96 740.432 1356.93 737.988C1358.9 735.547 1361.95 734.32 1366.08 734.32C1370.21 734.32 1373.25 735.498 1375.23 737.848C1377.2 740.198 1378.55 744.239 1379.31 749.97C1380.05 755.705 1380.43 764.118 1380.43 775.205V787.613H1352.01V775.205C1352.01 763.927 1352.33 755.517 1352.99 749.97ZM1352.01 819.478V810.735H1417.02V781.128C1417.02 762.898 1415.57 748.611 1412.66 738.271C1409.75 727.933 1404.73 720.319 1397.6 715.428C1390.47 710.543 1380.24 708.1 1366.92 708.1C1347.59 708.1 1333.94 714.068 1325.97 726.002C1317.99 737.943 1314 756.877 1314 782.819V812.99C1314 838.182 1317.85 856.796 1325.54 868.821C1333.24 880.854 1346.66 886.866 1365.79 886.866C1381.74 886.866 1394.09 882.916 1402.81 875.026C1411.54 867.13 1415.9 855.192 1415.9 839.215C1415.9 836.586 1415.8 834.518 1415.62 833.009L1382.12 831.036C1381.93 841.564 1380.76 849.083 1378.6 853.592C1376.44 858.107 1372.45 860.363 1366.64 860.363C1362.32 860.363 1359.13 859.094 1357.07 856.556C1355 854.018 1353.64 849.977 1352.99 844.43C1352.33 838.887 1352.01 830.568 1352.01 819.478ZM965.575 884.147V711.301H926.73V848.621C925.227 851.818 922.93 854.447 919.833 856.511C916.738 858.585 913.501 859.614 910.122 859.614C906.183 859.614 903.367 857.972 901.679 854.681C899.991 851.393 899.145 845.898 899.145 838.187V711.301H860.301V840.442C860.301 856.42 863.019 868.172 868.462 875.686C873.905 883.209 882.349 886.964 893.796 886.964C910.307 886.964 922.693 878.977 930.952 862.999H931.794L935.174 884.147H965.575ZM1164.77 711.301V884.147H1134.37L1130.99 862.999H1130.15C1121.89 878.977 1109.51 886.964 1093 886.964C1081.55 886.964 1073.1 883.209 1067.66 875.686C1062.22 868.172 1059.5 856.42 1059.5 840.442V711.301H1098.34V838.187C1098.34 845.898 1099.19 851.393 1100.88 854.681C1102.57 857.972 1105.38 859.614 1109.32 859.614C1112.7 859.614 1115.94 858.585 1119.03 856.511C1122.13 854.447 1124.43 851.818 1125.93 848.621V711.301H1164.77ZM1032.56 678.897H1071.12V647.6H956V678.897H994.562V884.17H1032.56V678.897Z" fill="#FDE226"/>
<path d="M568.186 671.095L558.524 673.673L558.525 673.679L568.186 671.095ZM533.388 636.237L530.796 645.896L530.802 645.897L533.388 636.237ZM568.186 860.902L558.525 858.318L558.524 858.323L568.186 860.902ZM533.388 895.759L530.804 886.099L530.795 886.101L533.388 895.759ZM225.825 895.759L228.418 886.101L228.409 886.099L225.825 895.759ZM191.027 860.902L200.689 858.324L200.688 858.318L191.027 860.902ZM191.027 671.095L200.688 673.679L200.689 673.673L191.027 671.095ZM225.825 636.237L228.411 645.897L228.417 645.896L225.825 636.237ZM1256.17 839.005L1246.28 837.577L1246.28 837.579L1256.17 839.005ZM1250.97 854.233L1243.2 847.93L1243.2 847.935L1250.97 854.233ZM1232.25 856.486L1237.1 847.743C1237.1 847.738 1237.09 847.734 1237.08 847.73L1232.25 856.486ZM1225.63 849.719H1215.63C1215.63 851.434 1216.08 853.12 1216.92 854.615L1225.63 849.719ZM1225.63 751.595L1216 748.902C1215.76 749.779 1215.63 750.685 1215.63 751.595H1225.63ZM1232.39 740.035L1225.54 732.751C1225.53 732.755 1225.53 732.759 1225.53 732.762L1232.39 740.035ZM1251.95 740.177L1260.16 734.469C1260.16 734.465 1260.16 734.461 1260.16 734.456L1251.95 740.177ZM1256.46 755.828L1246.52 756.974L1246.52 756.974L1256.46 755.828ZM1281.93 715.214L1288.74 707.896L1288.74 707.89L1281.93 715.214ZM1293.33 738.898L1303.11 736.797L1303.11 736.791L1293.33 738.898ZM1240.27 713.946L1234.81 705.569L1234.8 705.573L1240.27 713.946ZM1225.92 729.878V739.878C1229.67 739.878 1233.1 737.78 1234.81 734.443L1225.92 729.878ZM1225.63 729.878L1215.63 729.878C1215.63 732.53 1216.68 735.073 1218.56 736.949C1220.44 738.824 1222.98 739.878 1225.63 739.878V729.878ZM1225.63 638.801L1235.63 638.801C1235.63 636.149 1234.58 633.605 1232.71 631.73C1230.83 629.854 1228.29 628.801 1225.63 628.801V638.801ZM1188.2 638.801V628.801C1182.68 628.801 1178.2 633.278 1178.2 638.801H1188.2ZM1188.2 884.111H1178.2C1178.2 889.634 1182.68 894.111 1188.2 894.111V884.111ZM1220.29 884.111V894.111C1224.91 894.111 1228.92 890.946 1230.01 886.455L1220.29 884.111ZM1224.23 867.76V857.76C1219.61 857.76 1215.59 860.924 1214.51 865.416L1224.23 867.76ZM1225.07 867.76L1233.96 863.18C1232.25 859.852 1228.81 857.76 1225.07 857.76V867.76ZM1238.58 881.576L1233.67 890.288L1233.67 890.288L1238.58 881.576ZM1287.56 868.464L1296.46 873.015L1296.47 873.011L1287.56 868.464ZM615.301 647.6V637.6C612.178 637.6 609.235 639.058 607.343 641.543C605.452 644.028 604.83 647.254 605.662 650.264L615.301 647.6ZM659.494 807.477H669.494C669.494 806.576 669.373 805.68 669.133 804.812L659.494 807.477ZM653.863 647.6L663.643 645.511C662.657 640.897 658.581 637.6 653.863 637.6V647.6ZM669.344 720.067L659.564 722.156C659.569 722.178 659.574 722.2 659.579 722.223L669.344 720.067ZM678.069 765.745L668.178 767.218C668.908 772.118 673.116 775.745 678.069 775.745V765.745ZM679.197 765.745V775.745C684.164 775.745 688.378 772.099 689.093 767.184L679.197 765.745ZM687.922 720.349L678.157 718.195C678.151 718.222 678.145 718.249 678.139 718.275L687.922 720.349ZM703.967 647.6V637.6C699.274 637.6 695.212 640.863 694.201 645.446L703.967 647.6ZM742.529 647.6L752.159 650.295C753.002 647.283 752.387 644.049 750.496 641.556C748.605 639.064 745.657 637.6 742.529 637.6V647.6ZM697.775 807.477L688.145 804.781C687.899 805.658 687.775 806.565 687.775 807.477H697.775ZM697.775 884.176V894.176C703.298 894.176 707.775 889.698 707.775 884.176H697.775ZM659.494 884.176H649.494C649.494 889.698 653.971 894.176 659.494 894.176V884.176ZM797.759 851.983L807.099 855.557L807.1 855.553L797.759 851.983ZM775.101 851.983L784.494 848.552L784.49 848.541L775.101 851.983ZM775.241 743.286L784.6 746.808L784.601 746.805L775.241 743.286ZM797.759 743.286L807.12 739.77L807.117 739.763L797.759 743.286ZM754.133 879.052L759.733 870.768L759.726 870.763L754.133 879.052ZM737.524 854.522L747.114 851.688L747.112 851.682L737.524 854.522ZM818.025 879.191L812.499 870.857L812.495 870.86L818.025 879.191ZM834.916 854.665L844.466 857.631L844.466 857.629L834.916 854.665ZM834.776 740.47L844.305 737.437L844.303 737.431L834.776 740.47ZM817.886 715.797L823.534 707.545L823.53 707.542L817.886 715.797ZM755.821 715.657L761.258 724.05L761.261 724.048L755.821 715.657ZM738.228 740.327L747.715 743.486L747.716 743.484L738.228 740.327ZM1356.93 737.988L1349.15 731.707C1349.14 731.711 1349.14 731.715 1349.14 731.719L1356.93 737.988ZM1352.99 749.97L1362.92 751.154L1362.92 751.143L1352.99 749.97ZM1375.23 737.848L1382.89 731.424L1382.89 731.418L1375.23 737.848ZM1379.31 749.97L1389.22 748.676L1389.22 748.67L1379.31 749.97ZM1380.43 787.613V797.613C1385.95 797.613 1390.43 793.135 1390.43 787.613H1380.43ZM1352.01 787.613H1342.01C1342.01 793.135 1346.48 797.613 1352.01 797.613V787.613ZM1352.01 810.735V800.735C1346.48 800.735 1342.01 805.212 1342.01 810.735H1352.01ZM1417.02 810.735V820.735C1422.55 820.735 1427.02 816.257 1427.02 810.735H1417.02ZM1412.66 738.271L1422.29 735.562L1422.29 735.561L1412.66 738.271ZM1397.6 715.428L1403.26 707.183L1403.25 707.178L1397.6 715.428ZM1325.97 726.002L1317.65 720.447L1317.65 720.447L1325.97 726.002ZM1325.54 868.821L1333.97 863.435L1333.97 863.429L1325.54 868.821ZM1402.81 875.026L1396.1 867.61L1396.1 867.61L1402.81 875.026ZM1415.62 833.009L1425.54 831.772C1424.94 826.987 1421.02 823.309 1416.2 823.026L1415.62 833.009ZM1382.12 831.036L1382.71 821.053C1379.99 820.893 1377.32 821.848 1375.32 823.699C1373.32 825.549 1372.17 828.134 1372.12 830.857L1382.12 831.036ZM1378.6 853.592L1387.62 857.904L1387.63 857.903L1378.6 853.592ZM1357.07 856.556L1364.83 850.246C1364.82 850.242 1364.82 850.239 1364.82 850.235L1357.07 856.556ZM1352.99 844.43L1362.92 843.257L1362.92 843.245L1352.99 844.43ZM965.575 711.301H975.575C975.575 705.778 971.098 701.301 965.575 701.301V711.301ZM965.575 884.147V894.147C971.098 894.147 975.575 889.67 975.575 884.147H965.575ZM926.73 711.301V701.301C921.208 701.301 916.73 705.778 916.73 711.301H926.73ZM926.73 848.621L935.78 852.876C936.406 851.545 936.73 850.092 936.73 848.621H926.73ZM919.833 856.511L914.287 848.189C914.28 848.194 914.272 848.199 914.265 848.204L919.833 856.511ZM901.679 854.681L910.577 850.117L910.575 850.113L901.679 854.681ZM899.145 711.301H909.145C909.145 705.778 904.668 701.301 899.145 701.301V711.301ZM860.301 711.301V701.301C854.778 701.301 850.301 705.778 850.301 711.301H860.301ZM868.462 875.686L876.564 869.824L876.561 869.819L868.462 875.686ZM930.952 862.999V852.999C927.213 852.999 923.786 855.085 922.069 858.407L930.952 862.999ZM931.794 862.999L941.669 861.421C940.894 856.569 936.708 852.999 931.794 852.999V862.999ZM935.174 884.147L925.299 885.725C926.074 890.577 930.26 894.147 935.174 894.147V884.147ZM1164.77 884.147V894.147C1170.3 894.147 1174.77 889.67 1174.77 884.147H1164.77ZM1164.77 711.301H1174.77C1174.77 705.778 1170.3 701.301 1164.77 701.301V711.301ZM1134.37 884.147L1124.5 885.725C1125.27 890.577 1129.46 894.147 1134.37 894.147V884.147ZM1130.99 862.999L1140.87 861.421C1140.09 856.569 1135.91 852.999 1130.99 852.999V862.999ZM1130.15 862.999V852.999C1126.42 852.999 1122.99 855.084 1121.27 858.404L1130.15 862.999ZM1067.66 875.686L1075.76 869.824L1075.76 869.819L1067.66 875.686ZM1059.5 711.301V701.301C1053.98 701.301 1049.5 705.778 1049.5 711.301H1059.5ZM1098.34 711.301H1108.34C1108.34 705.778 1103.87 701.301 1098.34 701.301V711.301ZM1100.88 854.681L1091.98 859.249L1091.98 859.251L1100.88 854.681ZM1119.03 856.511L1113.49 848.189C1113.48 848.194 1113.47 848.199 1113.46 848.204L1119.03 856.511ZM1125.93 848.621L1134.98 852.876C1135.61 851.545 1135.93 850.092 1135.93 848.621H1125.93ZM1125.93 711.301V701.301C1120.41 701.301 1115.93 705.778 1115.93 711.301H1125.93ZM1071.12 678.897V688.897C1076.65 688.897 1081.12 684.42 1081.12 678.897H1071.12ZM1032.56 678.897V668.897C1027.04 668.897 1022.56 673.374 1022.56 678.897H1032.56ZM1071.12 647.6H1081.12C1081.12 642.077 1076.65 637.6 1071.12 637.6V647.6ZM956 647.6V637.6C950.477 637.6 946 642.077 946 647.6H956ZM956 678.897H946C946 684.42 950.477 688.897 956 688.897V678.897ZM994.562 678.897H1004.56C1004.56 673.374 1000.09 668.897 994.562 668.897V678.897ZM994.562 884.17H984.562C984.562 889.693 989.04 894.17 994.562 894.17V884.17ZM1032.56 884.17V894.17C1038.08 894.17 1042.56 889.693 1042.56 884.17H1032.56ZM577.847 668.516C572.4 648.106 556.373 632.038 535.974 626.577L530.802 645.897C544.275 649.504 554.917 660.16 558.524 673.673L577.847 668.516ZM576.412 765.998C586.412 765.998 586.412 765.997 586.412 765.996C586.412 765.995 586.412 765.994 586.412 765.993C586.412 765.99 586.412 765.986 586.412 765.981C586.412 765.972 586.412 765.958 586.412 765.941C586.412 765.907 586.411 765.857 586.411 765.793C586.411 765.663 586.411 765.474 586.41 765.228C586.407 764.736 586.403 764.016 586.395 763.093C586.379 761.246 586.346 758.584 586.281 755.296C586.151 748.725 585.891 739.635 585.37 729.562C584.344 709.714 582.262 685.021 577.846 668.511L558.525 673.679C562.335 687.92 564.367 710.679 565.397 730.595C565.904 740.403 566.158 749.273 566.285 755.692C566.349 758.899 566.38 761.488 566.396 763.27C566.404 764.161 566.408 764.849 566.41 765.312C566.411 765.543 566.411 765.718 566.411 765.834C566.412 765.891 566.412 765.934 566.412 765.962C566.412 765.975 566.412 765.985 566.412 765.991C566.412 765.994 566.412 765.997 566.412 765.998C566.412 765.998 566.412 765.998 566.412 765.999C566.412 765.998 566.412 765.998 576.412 765.998ZM577.846 863.487C582.262 846.978 584.344 822.284 585.37 802.436C585.891 792.362 586.151 783.272 586.281 776.701C586.346 773.413 586.379 770.75 586.395 768.903C586.403 767.98 586.407 767.26 586.41 766.768C586.411 766.522 586.411 766.333 586.411 766.204C586.411 766.139 586.412 766.089 586.412 766.055C586.412 766.038 586.412 766.024 586.412 766.015C586.412 766.01 586.412 766.006 586.412 766.003C586.412 766.002 586.412 766.001 586.412 766C586.412 765.999 586.412 765.998 576.412 765.998C566.412 765.998 566.412 765.998 566.412 765.998C566.412 765.998 566.412 765.998 566.412 765.998C566.412 766 566.412 766.002 566.412 766.005C566.412 766.011 566.412 766.021 566.412 766.035C566.412 766.062 566.412 766.105 566.411 766.163C566.411 766.278 566.411 766.453 566.41 766.684C566.408 767.147 566.404 767.835 566.396 768.726C566.38 770.508 566.349 773.098 566.285 776.305C566.158 782.724 565.904 791.594 565.397 801.403C564.367 821.32 562.335 844.079 558.525 858.318L577.846 863.487ZM535.972 905.419C556.374 899.962 572.401 883.889 577.847 863.481L558.524 858.323C554.917 871.837 544.274 882.496 530.804 886.099L535.972 905.419ZM379.605 904C379.605 914 379.606 914 379.607 914C379.608 914 379.61 914 379.612 914C379.616 914 379.622 914 379.63 914C379.646 914 379.669 914 379.7 914C379.761 914 379.851 914 379.97 914C380.207 913.999 380.559 913.999 381.017 913.998C381.934 913.996 383.279 913.992 385.001 913.984C388.444 913.968 393.392 913.935 399.424 913.871C411.484 913.741 427.896 913.483 445.283 912.965C462.654 912.448 481.078 911.671 497.138 910.497C512.917 909.343 527.266 907.757 535.981 905.417L530.795 886.101C524.162 887.882 511.614 889.385 495.68 890.55C480.029 891.694 461.926 892.461 444.688 892.974C427.466 893.487 411.188 893.743 399.21 893.872C393.223 893.936 388.315 893.968 384.907 893.984C383.203 893.992 381.874 893.996 380.973 893.998C380.522 893.999 380.178 894 379.948 894C379.833 894 379.746 894 379.689 894C379.66 894 379.639 894 379.625 894C379.618 894 379.613 894 379.609 894C379.608 894 379.607 894 379.606 894C379.605 894 379.605 894 379.605 904ZM223.232 905.417C231.947 907.757 246.295 909.343 262.074 910.497C278.134 911.671 296.558 912.448 313.928 912.965C331.315 913.483 347.726 913.741 359.786 913.871C365.818 913.935 370.766 913.968 374.209 913.984C375.931 913.992 377.276 913.996 378.193 913.998C378.651 913.999 379.003 913.999 379.24 914C379.359 914 379.449 914 379.51 914C379.541 914 379.564 914 379.58 914C379.588 914 379.594 914 379.598 914C379.6 914 379.602 914 379.603 914C379.604 914 379.605 914 379.605 904C379.605 894 379.605 894 379.604 894C379.603 894 379.602 894 379.601 894C379.597 894 379.592 894 379.585 894C379.571 894 379.55 894 379.521 894C379.463 894 379.377 894 379.262 894C379.032 894 378.688 893.999 378.237 893.998C377.336 893.996 376.007 893.992 374.303 893.984C370.895 893.968 365.987 893.936 360.001 893.872C348.023 893.743 331.745 893.487 314.523 892.974C297.286 892.461 279.183 891.694 263.532 890.55C247.599 889.385 235.05 887.882 228.418 886.101L223.232 905.417ZM181.365 863.48C186.811 883.889 202.839 899.962 223.241 905.419L228.409 886.099C214.939 882.496 204.295 871.837 200.689 858.324L181.365 863.48ZM182.801 765.998C172.801 765.998 172.801 765.999 172.801 766C172.801 766.001 172.801 766.002 172.801 766.003C172.801 766.006 172.801 766.01 172.801 766.015C172.801 766.024 172.801 766.038 172.801 766.055C172.801 766.089 172.801 766.139 172.801 766.204C172.801 766.333 172.802 766.522 172.803 766.768C172.805 767.26 172.809 767.98 172.817 768.903C172.834 770.75 172.866 773.413 172.931 776.701C173.061 783.272 173.321 792.362 173.842 802.436C174.869 822.284 176.95 846.978 181.367 863.487L200.688 858.318C196.878 844.078 194.846 821.32 193.816 801.403C193.308 791.594 193.054 782.724 192.927 776.305C192.864 773.098 192.832 770.508 192.816 768.726C192.809 767.835 192.805 767.147 192.803 766.684C192.802 766.453 192.801 766.278 192.801 766.163C192.801 766.105 192.801 766.062 192.801 766.035C192.801 766.021 192.801 766.011 192.801 766.005C192.801 766.002 192.801 766 192.801 765.998C192.801 765.998 192.801 765.998 192.801 765.998C192.801 765.998 192.801 765.998 182.801 765.998ZM181.367 668.51C176.95 685.021 174.869 709.714 173.842 729.562C173.321 739.635 173.061 748.725 172.931 755.296C172.866 758.584 172.834 761.246 172.817 763.093C172.809 764.016 172.805 764.736 172.803 765.228C172.802 765.474 172.801 765.663 172.801 765.793C172.801 765.857 172.801 765.907 172.801 765.941C172.801 765.958 172.801 765.972 172.801 765.981C172.801 765.986 172.801 765.99 172.801 765.993C172.801 765.994 172.801 765.995 172.801 765.996C172.801 765.997 172.801 765.998 182.801 765.998C192.801 765.998 192.801 765.998 192.801 765.999C192.801 765.998 192.801 765.998 192.801 765.998C192.801 765.997 192.801 765.994 192.801 765.991C192.801 765.985 192.801 765.975 192.801 765.962C192.801 765.934 192.801 765.891 192.801 765.834C192.801 765.718 192.802 765.543 192.803 765.312C192.805 764.849 192.809 764.161 192.816 763.27C192.832 761.488 192.864 758.899 192.927 755.692C193.054 749.273 193.308 740.403 193.816 730.595C194.846 710.679 196.878 687.92 200.688 673.679L181.367 668.51ZM223.239 626.577C202.84 632.038 186.812 648.106 181.365 668.517L200.689 673.673C204.295 660.16 214.938 649.504 228.411 645.897L223.239 626.577ZM379.605 628C379.605 618 379.604 618 379.603 618C379.602 618 379.6 618 379.598 618C379.594 618 379.588 618 379.58 618C379.564 618 379.541 618 379.51 618C379.449 618 379.359 618 379.24 618C379.003 618.001 378.651 618.001 378.193 618.002C377.276 618.004 375.931 618.008 374.209 618.016C370.766 618.032 365.818 618.065 359.786 618.129C347.726 618.258 331.315 618.517 313.928 619.034C296.558 619.551 278.134 620.328 262.074 621.502C246.295 622.654 231.948 624.24 223.233 626.579L228.417 645.896C235.05 644.116 247.598 642.613 263.531 641.449C279.183 640.305 297.285 639.538 314.523 639.025C331.745 638.513 348.023 638.256 360 638.128C365.987 638.064 370.895 638.032 374.303 638.016C376.007 638.008 377.336 638.004 378.237 638.002C378.688 638.001 379.032 638 379.262 638C379.377 638 379.463 638 379.521 638C379.55 638 379.571 638 379.585 638C379.592 638 379.597 638 379.601 638C379.602 638 379.603 638 379.604 638C379.605 638 379.605 638 379.605 628ZM535.98 626.579C527.265 624.24 512.917 622.654 497.138 621.502C481.078 620.328 462.653 619.551 445.283 619.034C427.896 618.517 411.484 618.258 399.424 618.129C393.392 618.065 388.444 618.032 385.001 618.016C383.279 618.008 381.934 618.004 381.017 618.002C380.559 618.001 380.207 618.001 379.97 618C379.851 618 379.761 618 379.7 618C379.669 618 379.646 618 379.63 618C379.622 618 379.616 618 379.612 618C379.61 618 379.608 618 379.607 618C379.606 618 379.605 618 379.605 628C379.605 638 379.605 638 379.606 638C379.607 638 379.608 638 379.609 638C379.613 638 379.618 638 379.625 638C379.639 638 379.66 638 379.689 638C379.746 638 379.833 638 379.948 638C380.178 638 380.522 638.001 380.973 638.002C381.874 638.004 383.203 638.008 384.907 638.016C388.315 638.032 393.223 638.064 399.21 638.128C411.188 638.256 427.466 638.513 444.688 639.025C461.926 639.538 480.029 640.305 495.681 641.449C511.614 642.613 524.163 644.116 530.796 645.896L535.98 626.579ZM1266.07 840.433C1267.2 832.6 1267.73 822.183 1267.73 809.399H1247.73C1247.73 821.807 1247.21 831.129 1246.28 837.577L1266.07 840.433ZM1258.73 860.536C1262.92 855.372 1264.97 848.064 1266.07 840.431L1246.28 837.579C1245.32 844.246 1243.89 847.084 1243.2 847.93L1258.73 860.536ZM1241.12 868.745C1248.02 868.745 1254.26 866.055 1258.74 860.531L1243.2 847.935C1242.8 848.428 1242.46 848.745 1241.12 848.745V868.745ZM1227.4 865.229C1231.65 867.59 1236.28 868.745 1241.12 868.745V848.745C1239.56 848.745 1238.29 848.4 1237.1 847.743L1227.4 865.229ZM1216.92 854.615C1219.41 859.062 1222.89 862.74 1227.42 865.242L1237.08 847.73C1236.17 847.225 1235.24 846.399 1234.35 844.822L1216.92 854.615ZM1215.63 751.595V849.719H1235.63V751.595H1215.63ZM1225.53 732.762C1220.87 737.157 1217.75 742.66 1216 748.902L1235.27 754.287C1236.14 751.144 1237.53 748.937 1239.25 747.307L1225.53 732.762ZM1242.8 725.526C1236.07 725.526 1230.24 728.325 1225.54 732.751L1239.24 747.318C1240.92 745.74 1242.03 745.526 1242.8 745.526V725.526ZM1260.16 734.456C1256.04 728.549 1249.86 725.526 1242.8 725.526V745.526C1243.13 745.526 1243.33 745.559 1243.43 745.58C1243.52 745.6 1243.54 745.614 1243.51 745.603C1243.49 745.591 1243.48 745.583 1243.51 745.602C1243.53 745.625 1243.62 745.708 1243.75 745.897L1260.16 734.456ZM1266.39 754.682C1265.5 746.991 1263.79 739.69 1260.16 734.469L1243.74 745.884C1244.42 746.864 1245.72 750 1246.52 756.974L1266.39 754.682ZM1267.73 787.125C1267.73 773.466 1267.3 762.581 1266.39 754.681L1246.52 756.974C1247.3 763.731 1247.73 773.716 1247.73 787.125H1267.73ZM1267.73 809.399V787.125H1247.73V809.399H1267.73ZM1275.11 722.532C1278.25 725.453 1281.42 731.076 1283.55 741.004L1303.11 736.791C1300.55 724.921 1296.11 714.758 1288.74 707.896L1275.11 722.532ZM1260.26 717.886C1267.66 717.886 1272.19 719.816 1275.12 722.539L1288.74 707.89C1281.16 700.843 1271.24 697.886 1260.26 697.886V717.886ZM1245.73 722.322C1250.37 719.301 1255.14 717.886 1260.26 717.886V697.886C1251.11 697.886 1242.56 700.515 1234.81 705.569L1245.73 722.322ZM1234.81 734.443C1237.39 729.414 1241 725.415 1245.74 722.318L1234.8 705.573C1227.16 710.564 1221.19 717.184 1217.02 725.312L1234.81 734.443ZM1225.63 739.878H1225.92V719.878H1225.63V739.878ZM1215.63 638.8L1215.63 729.878L1235.63 729.878L1235.63 638.801L1215.63 638.8ZM1188.2 648.801H1225.63V628.801H1188.2V648.801ZM1198.2 884.111V638.801H1178.2V884.111H1198.2ZM1220.29 874.111H1188.2V894.111H1220.29V874.111ZM1214.51 865.416L1210.56 881.767L1230.01 886.455L1233.95 870.104L1214.51 865.416ZM1225.07 857.76H1224.23V877.76H1225.07V857.76ZM1243.49 872.864C1239.09 870.386 1236.02 867.176 1233.96 863.18L1216.18 872.339C1220.12 879.993 1226.06 885.996 1233.67 890.288L1243.49 872.864ZM1258.57 876.649C1252.86 876.649 1247.9 875.348 1243.49 872.863L1233.67 890.288C1241.27 894.567 1249.64 896.649 1258.57 896.649V876.649ZM1278.66 863.913C1276.22 868.68 1273.38 871.729 1270.35 873.631C1267.34 875.519 1263.54 876.649 1258.57 876.649V896.649C1266.72 896.649 1274.33 894.747 1280.98 890.573C1287.61 886.413 1292.71 880.37 1296.46 873.015L1278.66 863.913ZM1286.85 811.647C1286.85 836.989 1283.74 853.959 1278.65 863.917L1296.47 873.011C1303.77 858.71 1306.85 837.813 1306.85 811.647H1286.85ZM1286.85 784.297V811.647H1306.85V784.297H1286.85ZM1283.55 740.998C1285.68 750.893 1286.85 765.211 1286.85 784.297H1306.85C1306.85 764.662 1305.67 748.718 1303.11 736.797L1283.55 740.998ZM605.662 650.264L649.856 810.141L669.133 804.812L624.939 644.935L605.662 650.264ZM653.863 637.6H615.301V657.6H653.863V637.6ZM679.123 717.978L663.643 645.511L644.084 649.689L659.564 722.156L679.123 717.978ZM687.96 764.271C686.039 751.376 683.083 735.91 679.109 717.911L659.579 722.223C663.492 739.944 666.348 754.928 668.178 767.218L687.96 764.271ZM679.197 755.745H678.069V775.745H679.197V755.745ZM678.139 718.275C673.635 739.519 670.664 754.932 669.301 764.306L689.093 767.184C690.354 758.514 693.201 743.663 697.704 722.423L678.139 718.275ZM694.201 645.446L678.157 718.195L697.687 722.503L713.732 649.753L694.201 645.446ZM742.529 637.6H703.967V657.6H742.529V637.6ZM707.405 810.172L752.159 650.295L732.899 644.904L688.145 804.781L707.405 810.172ZM707.775 884.176V807.477H687.775V884.176H707.775ZM659.494 894.176H697.775V874.176H659.494V894.176ZM649.494 807.477V884.176H669.494V807.477H649.494ZM807.1 855.553C809.951 848.092 810.996 837.305 810.996 824.354H790.996C790.996 836.966 789.875 844.601 788.418 848.413L807.1 855.553ZM786.36 870.441C790.89 870.441 795.373 869.234 799.248 866.359C803.047 863.541 805.525 859.669 807.099 855.557L788.419 848.41C787.834 849.939 787.334 850.295 787.332 850.296C787.32 850.305 787.3 850.322 787.216 850.348C787.117 850.378 786.855 850.441 786.36 850.441V870.441ZM765.708 855.415C767.219 859.549 769.653 863.468 773.456 866.323C777.333 869.236 781.833 870.441 786.36 870.441V850.441C785.862 850.441 785.607 850.378 785.522 850.352C785.499 850.345 785.484 850.339 785.476 850.336C785.468 850.332 785.464 850.33 785.464 850.33C785.464 850.33 785.465 850.331 785.467 850.332C785.469 850.333 785.469 850.334 785.467 850.332C785.465 850.33 785.443 850.314 785.402 850.271C785.36 850.227 785.293 850.148 785.205 850.021C785.027 849.762 784.768 849.303 784.494 848.552L765.708 855.415ZM762.004 824.354C762.004 837.285 762.996 848.019 765.712 855.426L784.49 848.541C783.072 844.674 782.004 836.986 782.004 824.354H762.004ZM762.004 770.497V824.354H782.004V770.497H762.004ZM765.881 739.765C763.056 747.273 762.004 757.861 762.004 770.497H782.004C782.004 758.318 783.11 750.769 784.6 746.808L765.881 739.765ZM786.36 724.686C781.8 724.686 777.336 725.975 773.52 728.927C769.814 731.793 767.415 735.686 765.88 739.767L784.601 746.805C785.222 745.155 785.755 744.748 785.756 744.747C785.757 744.745 785.741 744.753 785.756 744.748C785.784 744.739 785.962 744.686 786.36 744.686V724.686ZM807.117 739.763C805.56 735.626 803.102 731.713 799.314 728.854C795.438 725.929 790.931 724.686 786.36 724.686V744.686C786.838 744.686 787.084 744.748 787.168 744.774C787.239 744.796 787.253 744.809 787.266 744.819C787.278 744.827 787.799 745.215 788.4 746.81L807.117 739.763ZM810.996 770.497C810.996 757.856 809.939 747.274 807.12 739.77L788.397 746.803C789.887 750.769 790.996 758.322 790.996 770.497H810.996ZM810.996 824.354V770.497H790.996V824.354H810.996ZM759.726 870.763C754.272 867.083 749.892 861.084 747.114 851.688L727.935 857.357C731.715 870.147 738.408 880.506 748.539 887.342L759.726 870.763ZM786.361 876.948C773.788 876.948 765.266 874.508 759.733 870.768L748.532 887.337C758.564 894.119 771.529 896.948 786.361 896.948V876.948ZM812.495 870.86C806.903 874.572 798.515 876.948 786.361 876.948V896.948C800.853 896.948 813.569 894.153 823.556 887.523L812.495 870.86ZM825.365 851.7C822.397 861.257 817.919 867.263 812.499 870.857L823.552 887.525C833.703 880.794 840.487 870.442 844.466 857.631L825.365 851.7ZM830.123 810.256C830.123 828.177 828.418 841.862 825.365 851.702L844.466 857.629C848.354 845.099 850.123 829.178 850.123 810.256H830.123ZM830.123 785.161V810.256H850.123V785.161H830.123ZM825.247 743.503C828.368 753.307 830.123 767.056 830.123 785.161H850.123C850.123 766.046 848.304 750 844.305 737.437L825.247 743.503ZM812.238 724.049C817.661 727.761 822.18 733.887 825.249 743.509L844.303 737.431C840.238 724.684 833.495 714.362 823.534 707.545L812.238 724.049ZM787.207 717.9C798.671 717.9 806.718 720.275 812.242 724.052L823.53 707.542C813.664 700.797 801.261 697.9 787.207 697.9V717.9ZM761.261 724.048C767.127 720.244 775.509 717.9 787.207 717.9V697.9C773.004 697.9 760.462 700.73 750.38 707.267L761.261 724.048ZM747.716 743.484C750.935 733.807 755.621 727.702 761.258 724.05L750.384 707.265C740.06 713.953 733.024 724.29 728.739 737.17L747.716 743.484ZM742.6 785.161C742.6 767.086 744.435 753.337 747.715 743.486L728.74 737.168C724.509 749.874 722.6 766.016 722.6 785.161H742.6ZM742.6 810.256V785.161H722.6V810.256H742.6ZM747.112 851.682C744.213 841.897 742.6 828.215 742.6 810.256H722.6C722.6 829.14 724.265 844.974 727.936 857.363L747.112 851.682ZM1349.14 731.719C1345.4 736.367 1343.78 742.636 1343.06 748.798L1362.92 751.143C1363.19 748.837 1363.57 747.14 1363.96 745.943C1364.16 745.355 1364.34 744.936 1364.48 744.654C1364.55 744.515 1364.61 744.416 1364.65 744.35C1364.67 744.318 1364.69 744.294 1364.7 744.279C1364.71 744.264 1364.72 744.256 1364.72 744.257L1349.14 731.719ZM1366.08 724.32C1359.94 724.32 1353.57 726.225 1349.15 731.707L1364.71 744.269C1364.66 744.329 1364.59 744.4 1364.51 744.461C1364.42 744.52 1364.38 744.533 1364.42 744.52C1364.5 744.487 1364.98 744.32 1366.08 744.32V724.32ZM1382.89 731.418C1378.42 726.095 1372.09 724.32 1366.08 724.32V744.32C1367.22 744.32 1367.74 744.487 1367.86 744.533C1367.91 744.553 1367.88 744.546 1367.8 744.489C1367.72 744.431 1367.63 744.356 1367.57 744.279L1382.89 731.418ZM1389.22 748.67C1388.41 742.472 1386.76 736.038 1382.89 731.424L1367.56 744.272C1367.5 744.196 1367.82 744.561 1368.25 745.829C1368.66 747.063 1369.07 748.836 1369.39 751.271L1389.22 748.67ZM1390.43 775.205C1390.43 764 1390.06 755.068 1389.22 748.676L1369.39 751.265C1370.05 756.343 1370.43 764.236 1370.43 775.205H1390.43ZM1390.43 787.613V775.205H1370.43V787.613H1390.43ZM1352.01 797.613H1380.43V777.613H1352.01V797.613ZM1342.01 775.205V787.613H1362.01V775.205H1342.01ZM1343.06 748.787C1342.32 754.952 1342.01 763.854 1342.01 775.205H1362.01C1362.01 763.999 1362.33 756.082 1362.92 751.154L1343.06 748.787ZM1342.01 810.735V819.478H1362.01V810.735H1342.01ZM1417.02 800.735H1352.01V820.735H1417.02V800.735ZM1407.02 781.128V810.735H1427.02V781.128H1407.02ZM1403.03 740.979C1405.58 750.035 1407.02 763.271 1407.02 781.128H1427.02C1427.02 762.524 1425.56 747.186 1422.29 735.562L1403.03 740.979ZM1391.94 723.674C1396.71 726.945 1400.6 732.335 1403.04 740.98L1422.29 735.561C1418.9 723.532 1412.75 713.693 1403.26 707.183L1391.94 723.674ZM1366.92 718.1C1379.24 718.1 1387.16 720.397 1391.95 723.678L1403.25 707.178C1393.78 700.69 1381.24 698.1 1366.92 698.1V718.1ZM1334.28 731.558C1339.79 723.317 1349.65 718.1 1366.92 718.1V698.1C1345.53 698.1 1328.09 704.819 1317.65 720.447L1334.28 731.558ZM1324 782.819C1324 757.472 1327.98 740.992 1334.28 731.557L1317.65 720.447C1308 734.893 1304 756.283 1304 782.819H1324ZM1324 812.99V782.819H1304V812.99H1324ZM1333.97 863.429C1327.82 853.828 1324 837.548 1324 812.99H1304C1304 838.815 1307.87 859.763 1317.12 874.212L1333.97 863.429ZM1365.79 876.866C1348.77 876.866 1339.22 871.649 1333.97 863.435L1317.12 874.206C1327.25 890.06 1344.54 896.866 1365.79 896.866V876.866ZM1396.1 867.61C1389.78 873.322 1380.15 876.866 1365.79 876.866V896.866C1383.33 896.866 1398.39 892.509 1409.52 882.441L1396.1 867.61ZM1405.9 839.215C1405.9 853.422 1402.06 862.218 1396.1 867.61L1409.52 882.442C1421.01 872.041 1425.9 856.962 1425.9 839.215H1405.9ZM1405.69 834.245C1405.81 835.153 1405.9 836.747 1405.9 839.215H1425.9C1425.9 836.424 1425.8 833.882 1425.54 831.772L1405.69 834.245ZM1381.53 841.018L1415.03 842.991L1416.2 823.026L1382.71 821.053L1381.53 841.018ZM1387.63 857.903C1390.77 851.323 1391.92 841.935 1392.12 831.214L1372.12 830.857C1371.93 841.193 1370.74 846.844 1369.58 849.28L1387.63 857.903ZM1366.64 870.363C1370.82 870.363 1375.07 869.551 1378.92 867.374C1382.86 865.144 1385.75 861.834 1387.62 857.904L1369.58 849.279C1369.42 849.612 1369.29 849.77 1369.24 849.832C1369.19 849.888 1369.14 849.925 1369.07 849.967C1368.93 850.046 1368.28 850.363 1366.64 850.363V870.363ZM1349.31 862.865C1353.84 868.434 1360.34 870.363 1366.64 870.363V850.363C1365.43 850.363 1364.86 850.182 1364.71 850.119C1364.63 850.091 1364.64 850.087 1364.7 850.125C1364.75 850.165 1364.8 850.212 1364.83 850.246L1349.31 862.865ZM1343.06 845.602C1343.79 851.849 1345.47 858.152 1349.32 862.877L1364.82 850.235C1364.53 849.883 1363.49 848.104 1362.92 843.257L1343.06 845.602ZM1342.01 819.478C1342.01 830.647 1342.32 839.455 1343.06 845.614L1362.92 843.245C1362.33 838.318 1362.01 830.488 1362.01 819.478H1342.01ZM955.575 711.301V884.147H975.575V711.301H955.575ZM926.73 721.301H965.575V701.301H926.73V721.301ZM936.73 848.621V711.301H916.73V848.621H936.73ZM925.378 864.832C929.909 861.813 933.46 857.81 935.78 852.876L917.681 844.365C916.995 845.825 915.95 847.081 914.287 848.189L925.378 864.832ZM910.122 869.614C915.671 869.614 920.821 867.887 925.4 864.817L914.265 848.204C912.656 849.283 911.332 849.614 910.122 849.614V869.614ZM892.781 859.244C894.376 862.354 896.746 865.109 900.013 867.017C903.243 868.903 906.752 869.614 910.122 869.614V849.614C909.829 849.614 909.717 849.583 909.742 849.589C909.775 849.597 909.912 849.637 910.099 849.746C910.289 849.857 910.441 849.987 910.542 850.098C910.637 850.203 910.636 850.233 910.577 850.117L892.781 859.244ZM889.145 838.187C889.145 846.123 889.932 853.696 892.783 859.248L910.575 850.113C910.049 849.09 909.145 845.672 909.145 838.187H889.145ZM889.145 711.301V838.187H909.145V711.301H889.145ZM860.301 721.301H899.145V701.301H860.301V721.301ZM870.301 840.442V711.301H850.301V840.442H870.301ZM876.561 869.819C872.966 864.857 870.301 855.676 870.301 840.442H850.301C850.301 857.164 853.072 871.487 860.364 881.552L876.561 869.819ZM893.796 876.964C884.715 876.964 879.682 874.133 876.564 869.824L860.361 881.548C868.129 892.284 879.983 896.964 893.796 896.964V876.964ZM922.069 858.407C918.565 865.185 914.483 869.71 910.049 872.569C905.661 875.399 900.368 876.964 893.796 876.964V896.964C903.735 896.964 912.89 894.535 920.888 889.377C928.84 884.249 935.08 876.791 939.836 867.591L922.069 858.407ZM931.794 852.999H930.952V872.999H931.794V852.999ZM945.049 882.569L941.669 861.421L921.92 864.577L925.299 885.725L945.049 882.569ZM965.575 874.147H935.174V894.147H965.575V874.147ZM1174.77 884.147V711.301H1154.77V884.147H1174.77ZM1134.37 894.147H1164.77V874.147H1134.37V894.147ZM1121.12 864.577L1124.5 885.725L1144.25 882.569L1140.87 861.421L1121.12 864.577ZM1130.15 872.999H1130.99V852.999H1130.15V872.999ZM1093 896.964C1102.93 896.964 1112.09 894.535 1120.09 889.377C1128.04 884.249 1134.28 876.792 1139.04 867.594L1121.27 858.404C1117.77 865.184 1113.68 869.709 1109.25 872.569C1104.86 875.399 1099.57 876.964 1093 876.964V896.964ZM1059.56 881.548C1067.33 892.284 1079.18 896.964 1093 896.964V876.964C1083.91 876.964 1078.88 874.133 1075.76 869.824L1059.56 881.548ZM1049.5 840.442C1049.5 857.164 1052.27 871.487 1059.56 881.552L1075.76 869.819C1072.17 864.857 1069.5 855.676 1069.5 840.442H1049.5ZM1049.5 711.301V840.442H1069.5V711.301H1049.5ZM1098.34 701.301H1059.5V721.301H1098.34V701.301ZM1108.34 838.187V711.301H1088.34V838.187H1108.34ZM1109.77 850.112C1109.25 849.092 1108.34 845.678 1108.34 838.187H1088.34C1088.34 846.117 1089.13 853.694 1091.98 859.249L1109.77 850.112ZM1109.32 849.614C1109.03 849.614 1108.92 849.583 1108.94 849.589C1108.97 849.597 1109.11 849.637 1109.3 849.745C1109.49 849.856 1109.64 849.986 1109.74 850.096C1109.83 850.199 1109.83 850.228 1109.77 850.111L1091.98 859.251C1093.58 862.357 1095.95 865.111 1099.21 867.017C1102.44 868.903 1105.95 869.614 1109.32 869.614V849.614ZM1113.46 848.204C1111.85 849.283 1110.53 849.614 1109.32 849.614V869.614C1114.87 869.614 1120.02 867.887 1124.6 864.817L1113.46 848.204ZM1116.88 844.365C1116.19 845.825 1115.15 847.081 1113.49 848.189L1124.58 864.832C1129.11 861.813 1132.66 857.81 1134.98 852.876L1116.88 844.365ZM1115.93 711.301V848.621H1135.93V711.301H1115.93ZM1164.77 701.301H1125.93V721.301H1164.77V701.301ZM1071.12 668.897H1032.56V688.897H1071.12V668.897ZM1061.12 647.6V678.897H1081.12V647.6H1061.12ZM956 657.6H1071.12V637.6H956V657.6ZM966 678.897V647.6H946V678.897H966ZM994.562 668.897H956V688.897H994.562V668.897ZM1004.56 884.17V678.897H984.562V884.17H1004.56ZM1032.56 874.17H994.562V894.17H1032.56V874.17ZM1022.56 678.897V884.17H1042.56V678.897H1022.56Z" fill="#FF13CF" mask="url(#path-3-outside-2)"/>
<path fill-rule="evenodd" clip-rule="evenodd" d="M340.199 825.188L442.457 766.048L340.199 706.9V825.188Z" fill="#FF13CF"/>
</svg>
